<svg width="50" height="50" viewBox="0 0 50 50" fill="none" xmlns="http://www.w3.org/2000/svg">
<g id="Group 48">
<path id="Vector" d="M38.9817 27.6695C38.4593 28.1837 37.8523 28.798 37.0799 28.9322C36.3158 29.0977 34.7004 29.4497 33.9282 29.6187V31.3559H12.4999V7.62712C12.4999 6.69488 13.3034 5.9322 14.2855 5.9322H32.1425C33.1246 5.9322 33.9282 6.69488 33.9282 7.62712V13.2966L35.7139 11.6017V7.62712C35.7139 5.75422 34.1157 4.23729 32.1425 4.23729H14.2855C12.3123 4.23729 10.7142 5.75422 10.7142 7.62712V31.3559H8.92847V7.62712C8.92847 4.82203 11.3302 2.54237 14.2855 2.54237H31.1336C30.7407 1.07624 29.3389 0 27.6782 0H9.82131C7.8481 0 6.24993 1.51693 6.24993 3.38983V24.5763H4.46423C1.99997 24.5763 0 26.4746 0 28.8136V44.0678C0 47.339 2.80355 50 6.24993 50H34.821C38.2674 50 41.0709 47.339 41.0709 44.0678V28.8136C41.0709 27.9322 40.7852 27.1102 40.2942 26.4237L38.9817 27.6695ZM39.2852 44.0678C39.2852 46.4068 37.2853 48.3051 34.821 48.3051H6.24993C3.78566 48.3051 1.78569 46.4068 1.78569 44.0678V32.2034C2.52677 32.7373 3.45532 33.0508 4.46423 33.0508H36.6067C37.6156 33.0508 38.5442 32.7373 39.2852 32.2034V44.0678Z" fill="#789E9F"/>
<path id="Vector_2" d="M27.2318 34.7461H13.8391C9.12304 34.8867 9.11704 41.3833 13.8391 41.5257C13.8391 41.5257 27.2318 41.5257 27.2318 41.5257C31.9479 41.3854 31.9539 34.8882 27.2318 34.7461ZM29.4639 12.7122C30.6331 12.6951 30.6411 11.0359 29.4639 11.0173H15.1784C14.0082 11.0349 14.002 12.6934 15.1784 12.7122C15.1784 12.7122 29.4639 12.7122 29.4639 12.7122ZM30.3567 16.102C30.3567 15.6336 29.9574 15.2546 29.4639 15.2546H15.1784C14.6853 15.2546 14.2855 15.6336 14.2855 16.102C14.2855 16.5704 14.6853 16.9495 15.1784 16.9495H29.4639C29.9574 16.9495 30.3567 16.5704 30.3567 16.102ZM27.6782 20.3393C27.6782 19.8709 27.2789 19.4918 26.7854 19.4918H15.1784C14.6853 19.4918 14.2855 19.8709 14.2855 20.3393C14.2855 20.8077 14.6853 21.1868 15.1784 21.1868H26.7854C27.2789 21.1868 27.6782 20.8077 27.6782 20.3393ZM24.9997 23.7291H15.1784C14.0077 23.7469 14.0024 25.4053 15.1784 25.424C15.1784 25.424 24.9997 25.424 24.9997 25.424C26.1704 25.4065 26.1757 23.7477 24.9997 23.7291ZM15.1784 27.9664C14.0077 27.9842 14.0024 29.6426 15.1784 29.6613C15.1784 29.6613 24.9997 29.6613 24.9997 29.6613C26.1704 29.6438 26.1757 27.985 24.9997 27.9664H15.1784ZM42.812 7.62744C42.5619 7.62744 42.3298 7.71217 42.1602 7.87318L29.5604 19.8409C29.4316 19.9577 29.3474 20.1116 29.2943 20.2715L27.4014 28.0596C27.33 28.3478 27.4193 28.6444 27.6425 28.8478C27.8557 29.0538 28.1759 29.1343 28.4728 29.0766L32.9996 28.0851L36.6781 27.28C36.7438 27.2622 36.8065 27.2308 36.871 27.2084C36.9689 27.1614 37.0581 27.1019 37.1322 27.0269L49.7405 15.0681C49.9101 14.8986 50.0083 14.6783 49.9994 14.4495C49.8652 9.86992 45.5908 7.58844 42.812 7.62744ZM33.321 26.2715C32.6341 25.0575 31.6201 24.092 30.3567 23.4495L30.8628 21.3772C32.9152 21.763 34.89 22.872 35.5196 25.7894L33.321 26.2715ZM37.0856 24.6735C36.7719 23.6477 36.2556 22.8469 35.8069 22.2968L45.318 13.2691C45.6668 12.9381 45.6668 12.4018 45.318 12.0708C44.9693 11.7398 44.4043 11.7398 44.0555 12.0708L34.5445 21.0983C33.6879 20.4631 32.8059 20.1027 32.0317 19.8935L43.1423 9.34775C45.2786 9.53618 47.8137 11.0142 48.1958 14.1359L37.0856 24.6735Z" fill="#789E9F"/>
</g>
</svg>
