<svg width="50" height="50" viewBox="0 0 50 50" fill="none" xmlns="http://www.w3.org/2000/svg">
<g id="read-svgrepo-com 1">
<path id="Vector" d="M43.75 0H12.5L6.70781 5.79219C6.41406 6.08594 6.25 6.48281 6.25 6.89687V48.4375C6.25 49.3 6.95 50 7.8125 50H39.0625C39.925 50 40.625 49.3 40.625 48.4375V46.875L42.1875 45.3125H43.75C44.6125 45.3125 45.3125 44.6125 45.3125 43.75V1.5625C45.3125 0.7 44.6125 0 43.75 0ZM9.375 7.54375L12.5 4.41875V42.6453L9.375 45.7703V7.54375ZM10.4797 46.875L13.6047 43.75H39.3313L36.2063 46.875H10.4797ZM42.1875 42.1875H14.0625V3.125H42.1875V42.1875ZM35.9375 14.0625H20.3125V12.5H35.9375V14.0625ZM35.9375 18.75H20.3125V17.1875H35.9375V18.75ZM35.9375 23.4375H20.3125V21.875H35.9375V23.4375Z" fill="#789E9F"/>
</g>
</svg>
