<svg width="30" height="30" viewBox="0 0 30 30" fill="none" xmlns="http://www.w3.org/2000/svg">
<g id="calendar-svgrepo-com 1" clip-path="url(#clip0_78_2127)">
<g id="Layer 2">
<g id="icons Q2">
<path id="Vector" d="M27.5 5.99999H21.875V3.56249C21.8806 3.25367 21.7772 2.95275 21.5829 2.71268C21.3885 2.47262 21.1157 2.30878 20.8125 2.24999C20.6333 2.2228 20.4504 2.23489 20.2764 2.28541C20.1024 2.33593 19.9414 2.42368 19.8047 2.54258C19.668 2.66149 19.5587 2.80869 19.4845 2.97401C19.4103 3.13933 19.3729 3.3188 19.375 3.49999V5.99999H10.625V3.56249C10.6306 3.25367 10.5272 2.95275 10.3329 2.71268C10.1385 2.47262 9.86573 2.30878 9.5625 2.24999C9.38335 2.2228 9.20043 2.23489 9.02641 2.28541C8.85239 2.33593 8.69143 2.42368 8.5547 2.54258C8.41796 2.66149 8.30871 2.80869 8.23451 2.97401C8.16032 3.13933 8.12295 3.3188 8.125 3.49999V5.99999H2.5C2.16848 5.99999 1.85054 6.13169 1.61612 6.36611C1.3817 6.60053 1.25 6.91847 1.25 7.24999V27.25C1.25 27.5815 1.3817 27.8995 1.61612 28.1339C1.85054 28.3683 2.16848 28.5 2.5 28.5H27.5C27.8315 28.5 28.1495 28.3683 28.3839 28.1339C28.6183 27.8995 28.75 27.5815 28.75 27.25V7.24999C28.75 6.91847 28.6183 6.60053 28.3839 6.36611C28.1495 6.13169 27.8315 5.99999 27.5 5.99999ZM26.25 26H3.75V13.5H26.25V26ZM26.25 11H3.75V8.49999H26.25V11Z" fill="#789E9F"/>
</g>
</g>
</g>
<defs>
<clipPath id="clip0_78_2127">
<rect width="30" height="30" fill="white"/>
</clipPath>
</defs>
</svg>
