<svg width="50" height="50" viewBox="0 0 50 50" fill="none" xmlns="http://www.w3.org/2000/svg">
<g id="country-direction-location-map-navigation-pin-svgrepo-com 1">
<path id="Vector" fill-rule="evenodd" clip-rule="evenodd" d="M17.8571 14.0888C19.8296 14.0888 21.4285 12.4806 21.4285 10.4967C21.4285 8.51279 19.8296 6.90454 17.8571 6.90454C15.8846 6.90454 14.2856 8.51279 14.2856 10.4967C14.2856 12.4806 15.8846 14.0888 17.8571 14.0888ZM17.8571 11.7539C18.5474 11.7539 19.1071 11.191 19.1071 10.4967C19.1071 9.80232 18.5474 9.23943 17.8571 9.23943C17.1667 9.23943 16.6071 9.80232 16.6071 10.4967C16.6071 11.191 17.1667 11.7539 17.8571 11.7539Z" fill="#789E9F"/>
<path id="Vector_2" fill-rule="evenodd" clip-rule="evenodd" d="M9.19636 10.0477C9.19636 5.39339 13.1677 1.78571 17.8571 1.78571C22.5465 1.78571 26.5178 5.39339 26.5178 10.0477C26.5178 10.8216 26.4489 11.6701 26.298 12.5639L32.1428 14.0336L45.9955 10.5503C46.5289 10.4162 47.094 10.5367 47.5274 10.8771C47.9608 11.2175 48.2142 11.7397 48.2142 12.2928V42.8261C48.2142 43.6502 47.6565 44.3686 46.8615 44.5686L32.5758 48.1607C32.2915 48.2321 31.994 48.2321 31.7098 48.1607L17.8571 44.6773L4.00447 48.1607C3.47098 48.2948 2.90582 48.1743 2.47241 47.8339C2.03898 47.4936 1.78564 46.9712 1.78564 46.4182V15.8849C1.78564 15.0607 2.34332 14.3424 3.13825 14.1425L9.41618 12.5639C9.26534 11.6701 9.19636 10.8216 9.19636 10.0477ZM17.8571 4.83904C14.6567 4.83904 12.2321 7.26234 12.2321 10.0477C12.2321 12.8873 13.4151 17.0944 16.8031 20.2884C17.3971 20.8484 18.3171 20.8484 18.911 20.2884C22.299 17.0944 23.4821 12.8873 23.4821 10.0477C23.4821 7.26234 21.0574 4.83904 17.8571 4.83904ZM10.3732 16.0259L5.76214 17.1854C5.52402 17.2453 5.35707 17.4594 5.35707 17.7049V43.4307C5.35707 43.7795 5.68513 44.0354 6.02343 43.9502L15.6663 41.5255C15.9044 41.4657 16.0714 41.2516 16.0714 41.0061V23.6618C13.2205 21.4714 11.4148 18.7129 10.3732 16.0259ZM19.6428 23.6618V41.0061C19.6428 41.2516 19.8098 41.4657 20.0478 41.5255L29.6906 43.9502C30.029 44.0354 30.3571 43.7795 30.3571 43.4307V17.7049C30.3571 17.4594 30.1901 17.2453 29.9521 17.1854L25.341 16.0259C24.2992 18.7129 22.4937 21.4714 19.6428 23.6618ZM44.6428 41.0061C44.6428 41.2516 44.4758 41.4657 44.2378 41.5255L34.5949 43.9502C34.2565 44.0354 33.9285 43.7795 33.9285 43.4307V17.7049C33.9285 17.4594 34.0955 17.2453 34.3335 17.1854L43.9764 14.7607C44.3148 14.6756 44.6428 14.9314 44.6428 15.2802V41.0061Z" fill="#789E9F"/>
</g>
</svg>
