<svg width="50" height="51" viewBox="0 0 50 51" fill="none" xmlns="http://www.w3.org/2000/svg">
<g clip-path="url(#clip0_83_592)">
<path d="M47.7284 43.4875H15.9205C14.6682 43.4875 13.6477 42.4693 13.6477 41.2159V38.9443C13.6477 38.5284 13.8761 38.1466 14.2409 37.9466L25.3614 31.8818C21.6364 27.8534 21.5955 22.1545 21.5955 21.8909L21.6023 15.0807C21.6023 15.017 21.608 14.9545 21.6182 14.8932C22.4011 10.25 27.5273 7.13179 31.8239 7.13179H31.8284C36.1227 7.13179 41.2477 10.2477 42.033 14.8897C42.0432 14.9522 42.0489 15.0159 42.0489 15.0784L42.0523 21.8897C42.0523 22.1522 42.0114 27.8511 38.2875 31.8795L49.408 37.9443C49.7727 38.1443 50 38.5261 50 38.942V41.2159C50 42.4693 48.9807 43.4875 47.7284 43.4875ZM35.825 33.1238C35.492 32.942 35.2716 32.6068 35.2364 32.2295C35.2023 31.8522 35.3591 31.4829 35.6523 31.2443C39.7398 27.9307 39.7807 21.9511 39.7807 21.8909L39.7761 15.1795C39.1375 11.7704 35.0943 9.40225 31.8239 9.40225C28.5523 9.40339 24.5114 11.7727 23.875 15.1818L23.8682 21.8932C23.8682 21.9511 23.9307 27.95 27.9955 31.2466C28.2898 31.4852 28.4466 31.8545 28.4114 32.2318C28.3773 32.6091 28.1568 32.9443 27.8239 33.1261L15.9205 39.6193V41.2159H47.7261L47.7273 39.6182L35.825 33.1238ZM21.1898 9.98748C20.1864 9.5977 19.1455 9.39316 18.1761 9.39316C14.9045 9.39429 10.8625 11.7636 10.2261 15.1727L10.2193 21.8841C10.2193 21.9432 10.2807 27.9409 14.3466 31.2375C14.6409 31.4761 14.7977 31.8454 14.7636 32.2227C14.7284 32.6 14.508 32.9352 14.175 33.117L2.27159 39.6102V41.2068H10.225C10.8523 41.2068 11.3602 41.7159 11.3602 42.3432C11.3602 42.9704 10.8523 43.4795 10.225 43.4795H2.27159C1.01932 43.4795 0 42.4602 0 41.2068V38.9352C0 38.5204 0.227273 38.1375 0.592045 37.9386L11.7125 31.8727C7.98864 27.8443 7.94659 22.1454 7.94659 21.8829L7.95341 15.0716C7.95341 15.0091 7.95909 14.9454 7.96932 14.8841C8.75227 10.242 13.8784 7.12384 18.1761 7.12384C18.1807 7.12384 18.1875 7.12384 18.1932 7.12384C19.433 7.12384 20.7523 7.38179 22.0102 7.86929C22.5966 8.09657 22.8864 8.75452 22.6602 9.33861C22.4318 9.92384 21.7705 10.2147 21.1898 9.98748Z" fill="#789E9F"/>
</g>
<defs>
<clipPath id="clip0_83_592">
<rect width="50" height="50" fill="white" transform="translate(0 0.305664)"/>
</clipPath>
</defs>
</svg>
