<svg width="50" height="50" viewBox="0 0 50 50" fill="none" xmlns="http://www.w3.org/2000/svg">
<g id="gender-mark-1-svgrepo-com 1" clip-path="url(#clip0_112_1425)">
<g id="Group">
<path id="Vector" d="M46.312 27.8203C48.5864 25.5481 50.0016 22.3854 50.0001 18.9155C50.0016 15.4458 48.5864 12.283 46.312 10.0114C44.0404 7.73623 40.8784 6.3212 37.4072 6.32334C33.9375 6.3212 30.774 7.73633 28.5039 10.0114C26.2281 12.283 24.813 15.4458 24.8145 18.9155C24.813 22.3853 26.2281 25.548 28.5039 27.8203C30.3855 29.7048 32.8798 30.9958 35.6533 31.3836V36.557H29.9418V40.0672H35.6533V45.6107H39.1628V40.0672H44.8743V36.557H39.1628V31.3836C41.9362 30.9958 44.4304 29.7048 46.312 27.8203ZM37.4072 26.9454C36.2927 26.9446 35.242 26.7207 34.282 26.3151C32.8441 25.7075 31.6134 24.6858 30.7471 23.4033C29.8821 22.1194 29.3787 20.5865 29.3787 18.9155C29.3787 17.8003 29.6027 16.7503 30.0083 15.7911C30.6151 14.3525 31.6361 13.1226 32.9194 12.2562C34.2041 11.3905 35.7368 10.8871 37.4072 10.8856C38.5218 10.8864 39.5725 11.1105 40.5324 11.5167C41.9703 12.1235 43.2011 13.1452 44.0674 14.4277C44.9323 15.7125 45.4357 17.2452 45.4371 18.9156C45.4357 20.0309 45.2117 21.0809 44.8062 22.0401C44.1993 23.4786 43.177 24.7094 41.895 25.5751C40.6104 26.4413 39.079 26.944 37.4072 26.9454Z" fill="#789E9F"/>
<path id="Vector_2" d="M14.3469 19.7563V11.1089L17.8322 14.5936L20.315 12.1121L12.5929 4.38926L4.86924 12.1121L7.35068 14.5936L10.8374 11.1082V19.7563C8.06387 20.1448 5.56973 21.4359 3.68809 23.321C1.41231 25.5927 -0.0013662 28.7547 9.90778e-07 32.2245C-0.0013662 35.6957 1.41231 38.8577 3.68809 41.1292C5.95967 43.4051 9.12168 44.8194 12.5929 44.8181C16.0626 44.8194 19.2247 43.4051 21.4962 41.1292C23.772 38.8576 25.1856 35.6956 25.1856 32.2245C25.1856 28.7548 23.772 25.5927 21.4962 23.3211C19.6147 21.436 17.1204 20.1448 14.3469 19.7563ZM19.9918 35.3497C19.3835 36.7882 18.3626 38.0183 17.0807 38.8847C15.7961 39.7511 14.2633 40.2545 12.5929 40.2545C11.477 40.2545 10.4276 40.0305 9.46768 39.6249C8.02988 39.0166 6.79902 37.9956 5.93272 36.7131C5.06631 35.4284 4.56299 33.8963 4.56299 32.2246C4.56299 31.1102 4.78701 30.0602 5.19248 29.1009C5.80078 27.6631 6.82178 26.4323 8.10498 25.5659C9.38818 24.7003 10.921 24.1977 12.5928 24.1962C13.7073 24.1962 14.7565 24.4202 15.718 24.8265C17.1544 25.4341 18.3852 26.455 19.2516 27.7375C20.1179 29.0223 20.6213 30.5543 20.6213 32.2246C20.6214 33.3403 20.3973 34.3911 19.9918 35.3497Z" fill="#789E9F"/>
</g>
</g>
<defs>
<clipPath id="clip0_112_1425">
<rect width="50" height="50" fill="white"/>
</clipPath>
</defs>
</svg>
