<svg width="30" height="30" viewBox="0 0 30 30" fill="none" xmlns="http://www.w3.org/2000/svg">
<g id="book-heart-love-svgrepo-com 1">
<g id="diary_book-book-heart-love-valentine">
<path id="Vector" d="M26.7188 10.8437H26.25V8.20837C26.25 7.32788 25.4518 6.6721 24.603 6.82274L14.9999 8.4929L5.4007 6.8003C4.54453 6.64679 3.75 7.30796 3.75 8.18505V10.8437H3.28125C2.76352 10.8437 2.34375 11.2634 2.34375 11.7812V22.5625C2.34375 23.0802 2.76352 23.5 3.28125 23.5H10.9421C11.7391 23.5 12.1069 23.8882 12.5758 24.357C12.9274 24.7087 13.4044 24.9062 13.9016 24.9062C14.6965 24.9062 15.3034 24.9062 16.0983 24.9062C16.5956 24.9062 17.0725 24.7087 17.4241 24.357C17.8928 23.8883 18.2601 23.5 19.0578 23.5H26.7188C27.2365 23.5 27.6562 23.0802 27.6562 22.5625V11.7812C27.6562 11.2634 27.2365 10.8437 26.7188 10.8437ZM24.7637 7.74653C25.0419 7.69684 25.3125 7.90983 25.3125 8.20843V19.875C25.3125 20.103 25.1495 20.297 24.9253 20.3369L15.4688 22.004V9.3629L24.7637 7.74653ZM4.6875 8.18505C4.6875 7.89489 4.94801 7.67335 5.23775 7.72315L14.5312 9.36196V22.004L5.07475 20.3369C4.85045 20.297 4.6875 20.103 4.6875 19.875V8.18505ZM16.8823 16.6871C16.837 16.4321 17.0073 16.1891 17.2622 16.1442L23.356 15.0698C23.6101 15.0218 23.854 15.1948 23.8989 15.4497C23.9442 15.7047 23.7739 15.9478 23.519 15.9927L17.4253 17.067C17.3978 17.0721 17.3703 17.0744 17.3433 17.0744C17.1199 17.0744 16.9222 16.9146 16.8823 16.6871ZM16.8823 14.3434C16.837 14.0884 17.0073 13.8453 17.2622 13.8004L23.356 12.7261C23.6101 12.6789 23.854 12.851 23.8989 13.106C23.9442 13.361 23.7739 13.604 23.519 13.6489L17.4253 14.7233C17.3978 14.7283 17.3703 14.7306 17.3433 14.7306C17.1199 14.7306 16.9222 14.5708 16.8823 14.3434ZM16.8823 11.9996C16.837 11.7446 17.0073 11.5016 17.2622 11.4567L23.356 10.3823C23.6101 10.3343 23.854 10.5073 23.8989 10.7622C23.9442 11.0172 23.7739 11.2603 23.519 11.3052L17.4253 12.3795C17.3978 12.3846 17.3703 12.3869 17.3433 12.3869C17.1199 12.3869 16.9222 12.2271 16.8823 11.9996ZM16.8823 19.0309C16.837 18.7759 17.0073 18.5328 17.2622 18.4879L23.356 17.4136C23.6101 17.3664 23.854 17.5385 23.8989 17.7935C23.9442 18.0485 23.7739 18.2915 23.519 18.3364L17.4253 19.4108C17.3978 19.4158 17.3703 19.4181 17.3433 19.4181C17.1199 19.4181 16.9222 19.2583 16.8823 19.0309ZM6.92807 13.7876C6.23373 12.9633 6.11426 11.8143 6.71631 11.1366C7.44369 10.318 8.79809 10.4934 9.60938 11.4567C10.4207 10.7795 11.7751 11.0817 12.5024 12.1569C13.1045 13.0469 12.985 14.1538 12.2907 14.7332L10.3864 16.3225C9.9576 16.6804 9.26115 16.5576 8.83236 16.0485L6.92807 13.7876Z" fill="#789E9F"/>
</g>
</g>
</svg>
