<svg width="50" height="51" viewBox="0 0 50 51" fill="none" xmlns="http://www.w3.org/2000/svg">
<path d="M49.8947 43.8966L47.762 35.6249L47.7619 35.6244L47.7617 35.6239L41.3634 10.8082L39.2305 2.53576C39.0178 1.71346 38.4998 1.0125 37.7902 0.586777C37.0806 0.161058 36.2374 0.0453796 35.4458 0.265142L27.486 2.48166C27.1544 2.57461 26.8401 2.72439 26.5559 2.92484C26.3254 2.3314 25.9296 1.82297 25.4194 1.46465C24.9091 1.10634 24.3076 0.914448 23.6918 0.913554H15.4511C14.6899 0.913806 13.9558 1.20762 13.391 1.7381C12.8262 1.20762 12.0921 0.913806 11.3308 0.913554H3.09023C2.27093 0.914505 1.48545 1.25316 0.906119 1.85523C0.326786 2.45729 0.000915396 3.27359 0 4.12503V46.9448C0.000915396 47.7962 0.326786 48.6125 0.906119 49.2146C1.48545 49.8166 2.27093 50.1553 3.09023 50.1562H11.3308C12.0921 50.156 12.8262 49.8622 13.391 49.3317C13.9558 49.8622 14.6899 50.156 15.4511 50.1562H23.6918C24.5111 50.1553 25.2965 49.8166 25.8759 49.2146C26.4552 48.6125 26.7811 47.7962 26.782 46.9448V12.1591L27.4336 14.6864L27.4337 14.6867L27.4338 14.6871L33.8322 39.503V39.5033L33.8323 39.5037L35.965 47.7753C36.0698 48.1829 36.2508 48.565 36.4977 48.8998C36.7447 49.2345 37.0528 49.5154 37.4043 49.7263C37.7558 49.9373 38.1439 50.0741 38.5464 50.129C38.9488 50.1839 39.3577 50.1557 39.7497 50.0462L47.7096 47.8297C48.1015 47.7206 48.469 47.5323 48.791 47.2756C49.1129 47.0188 49.3831 46.6987 49.586 46.3335C49.7889 45.9683 49.9206 45.5651 49.9736 45.147C50.0265 44.7289 49.9997 44.304 49.8947 43.8966ZM29.6901 15.1666L39.6401 12.396L45.5053 35.1446L35.5556 37.9153L29.6901 15.1666ZM15.4511 3.05454H23.6918C23.9649 3.05484 24.2267 3.16772 24.4198 3.36842C24.6129 3.56911 24.7215 3.84121 24.7218 4.12503V37.3103H14.4211V4.12503C14.4214 3.84121 14.53 3.56911 14.7231 3.36842C14.9162 3.16772 15.178 3.05484 15.4511 3.05454ZM3.09023 3.05454H11.3308C11.6039 3.05484 11.8658 3.16772 12.0589 3.36842C12.252 3.56911 12.3606 3.84121 12.3609 4.12503V11.6185H2.06015V4.12503C2.06044 3.84121 2.16906 3.56911 2.36218 3.36842C2.55529 3.16772 2.81712 3.05484 3.09023 3.05454ZM11.3308 48.0153H3.09023C2.81712 48.015 2.55529 47.9021 2.36218 47.7014C2.16906 47.5007 2.06044 47.2286 2.06015 46.9448V13.7595H12.3609V46.9448C12.3606 47.2286 12.252 47.5007 12.0589 47.7014C11.8658 47.9021 11.6039 48.015 11.3308 48.0153ZM23.6918 48.0153H15.4511C15.178 48.015 14.9162 47.9021 14.7231 47.7014C14.53 47.5007 14.4214 47.2286 14.4211 46.9448V39.4513H24.7218V46.9448C24.7215 47.2286 24.6129 47.5007 24.4198 47.7014C24.2267 47.9021 23.9649 48.015 23.6918 48.0153ZM27.3937 5.04839C27.4611 4.92638 27.5511 4.81947 27.6584 4.73383C27.7658 4.64819 27.8885 4.58553 28.0193 4.54947L35.979 2.33295C36.1096 2.2965 36.2459 2.28716 36.3801 2.30548C36.5142 2.32379 36.6435 2.3694 36.7607 2.43969C36.8779 2.50998 36.9805 2.60358 37.0629 2.71513C37.1452 2.82669 37.2056 2.95401 37.2406 3.08982L39.1069 10.3282L29.157 13.0987L27.2909 5.86067C27.2554 5.72493 27.2463 5.58325 27.264 5.44381C27.2816 5.30438 27.3257 5.16998 27.3937 5.04839ZM47.8018 45.263C47.7345 45.385 47.6445 45.4919 47.5371 45.5775C47.4298 45.6632 47.3071 45.7258 47.1763 45.7619L39.2166 47.9784C38.9527 48.0512 38.6718 48.0124 38.4354 47.8705C38.1989 47.7286 38.0262 47.4952 37.955 47.2213L36.0888 39.9831L46.0384 37.2124L47.9047 44.4507C47.9401 44.5864 47.9493 44.7281 47.9316 44.8675C47.9139 45.007 47.8698 45.1414 47.8018 45.263Z" fill="#789E9F"/>
</svg>
