<svg width="90" height="41" viewBox="0 0 90 41" fill="none" xmlns="http://www.w3.org/2000/svg">
<g clip-path="url(#clip0_83_601)">
<g clip-path="url(#clip1_83_601)">
<g clip-path="url(#clip2_83_601)">
<g clip-path="url(#clip3_83_601)">
<g clip-path="url(#clip4_83_601)">
<path d="M31.3182 1.37941C31.3182 0.805442 30.9957 0.340149 30.5978 0.340149C30.1999 0.340149 29.8773 0.805442 29.8773 1.37941V39.4004C29.8773 39.9743 30.1999 40.4396 30.5978 40.4396C30.9957 40.4396 31.3182 39.9743 31.3182 39.4004V1.37941Z" fill="#C9E4E7"/>
<g clip-path="url(#clip5_83_601)">
<g clip-path="url(#clip6_83_601)">
<g clip-path="url(#clip7_83_601)">
<g clip-path="url(#clip8_83_601)">
<path d="M45.9943 19.4412L44.5937 15.0173H38.4599L37.084 19.4412H35.0902L40.6843 2.49416H42.3733L47.9757 19.4412H45.9943ZM41.5288 5.25431L39.0448 13.182H44.0211L41.5288 5.25431ZM51.6749 1.56458V19.4412H49.8171V1.56458H51.6749ZM56.6759 1.56458V19.4412H54.8139V1.56458H56.6759Z" fill="#C9E4E7"/>
<path d="M45.4299 32.6365V32.8225C45.4299 34.7484 45.048 36.2943 44.2847 37.4608C43.5185 38.6302 42.4928 39.2151 41.2075 39.2151C39.8316 39.2151 38.7688 38.6526 38.0191 37.5276L37.9285 38.9815H36.2189V21.1049H38.0768V27.7741C38.8294 26.6967 39.8658 26.158 41.1869 26.158C42.508 26.158 43.5445 26.7349 44.2971 27.8885C45.0522 29.0455 45.4299 30.6282 45.4299 32.6365ZM43.5679 32.5793C43.5679 31.1144 43.3237 29.9813 42.8347 29.1804C42.3457 28.3829 41.6429 27.9838 40.7255 27.9838C39.4979 27.9838 38.6152 28.6431 38.0768 29.9622V35.4062C38.6481 36.7281 39.5363 37.3893 40.742 37.3893C41.6347 37.3893 42.3292 36.9889 42.8264 36.188C43.3208 35.3905 43.5679 34.1873 43.5679 32.5793ZM47.2795 32.7223V32.5698C47.2795 31.3365 47.4896 30.2277 47.9098 29.2424C48.33 28.2541 48.9137 27.4928 49.6606 26.9589C50.4074 26.425 51.2601 26.158 52.2187 26.158C53.7017 26.158 54.9005 26.7506 55.815 27.9362C56.7295 29.1246 57.1867 30.7044 57.1867 32.6747V32.8225C57.1867 34.049 56.9836 35.1502 56.5771 36.126C56.1734 37.0985 55.5937 37.8565 54.8387 38.4C54.0836 38.9434 53.2168 39.2151 52.2393 39.2151C50.7646 39.2151 49.5699 38.6207 48.6554 37.4322C47.738 36.2467 47.2795 34.6769 47.2795 32.7223ZM49.1497 32.8225C49.1497 34.2206 49.4299 35.3428 49.9901 36.188C50.5503 37.0332 51.3001 37.4561 52.2393 37.4561C53.1839 37.4561 53.9353 37.027 54.4926 36.169C55.0475 35.3142 55.3248 34.1143 55.3248 32.5698C55.3248 31.1873 55.0417 30.0671 54.4762 29.209C53.9106 28.3542 53.1579 27.9266 52.2187 27.9266C51.3013 27.9266 50.5615 28.3495 49.9983 29.1947C49.4327 30.0399 49.1497 31.2493 49.1497 32.8225ZM59.0281 32.7223V32.5698C59.0281 31.3365 59.237 30.2277 59.6543 29.2424C60.0744 28.2541 60.6582 27.4928 61.405 26.9589C62.1547 26.425 63.0087 26.158 63.9673 26.158C65.4474 26.158 66.6449 26.7506 67.5594 27.9362C68.4768 29.1246 68.9353 30.7044 68.9353 32.6747V32.8225C68.9353 34.049 68.7322 35.1502 68.3256 36.126C67.919 37.0985 67.3399 37.8565 66.5872 38.4C65.8322 38.9434 64.9654 39.2151 63.9879 39.2151C62.5103 39.2151 61.3144 38.6207 60.3999 37.4322C59.4854 36.2467 59.0281 34.6769 59.0281 32.7223ZM60.8983 32.8225C60.8983 34.2206 61.1784 35.3428 61.7387 36.188C62.2989 37.0332 63.0487 37.4561 63.9879 37.4561C64.9325 37.4561 65.6822 37.027 66.2371 36.169C66.7944 35.3142 67.0733 34.1143 67.0733 32.5698C67.0733 31.1873 66.7903 30.0671 66.2247 29.209C65.6563 28.3542 64.9036 27.9266 63.9673 27.9266C63.0474 27.9266 62.3059 28.3495 61.7428 29.1947C61.1797 30.0399 60.8983 31.2493 60.8983 32.8225ZM78.0969 38.9815L74.3029 33.1514L73.1371 34.5577V38.9815H71.2793V21.1049H73.1371V31.9167L74.134 30.5342L77.5243 26.3869H79.7859L75.5511 31.6497L80.2802 38.9815H78.0969ZM88.0412 35.6398C88.0412 35.0582 87.8517 34.6068 87.4727 34.2859C87.0937 33.9651 86.4334 33.6867 85.4912 33.4517C84.5491 33.2195 83.8023 32.9416 83.2503 32.6175C82.6983 32.29 82.2892 31.901 82.0227 31.4495C81.7591 31.0014 81.6272 30.4661 81.6272 29.843C81.6272 28.8133 82.0033 27.9409 82.756 27.2259C83.511 26.5141 84.475 26.158 85.6478 26.158C86.8836 26.158 87.8846 26.5265 88.6508 27.264C89.4199 27.9981 89.8043 28.9406 89.8043 30.0909H87.9341C87.9341 29.4998 87.717 28.9911 87.2832 28.5654C86.8519 28.1397 86.3069 27.9266 85.6478 27.9266C84.9722 27.9266 84.4437 28.0968 84.0618 28.4367C83.6775 28.7799 83.4851 29.2266 83.4851 29.7763C83.4851 30.2945 83.6635 30.6854 84.0206 30.949C84.3749 31.2126 85.0163 31.4653 85.9444 31.7069C86.8725 31.9486 87.6251 32.2361 88.2018 32.5698C88.7785 32.9035 89.207 33.3039 89.4871 33.7711C89.7643 34.2416 89.9031 34.8151 89.9031 35.492C89.9031 36.6171 89.5147 37.518 88.7374 38.195C87.96 38.8752 86.9508 39.2151 85.7096 39.2151C84.8391 39.2151 84.0672 39.0373 83.3945 38.6812C82.7242 38.3223 82.1998 37.8231 81.8208 37.1843C81.4419 36.5422 81.2524 35.8496 81.2524 35.1059H83.1143C83.1473 35.8272 83.3973 36.3992 83.8641 36.822C84.3308 37.2449 84.9462 37.4561 85.7096 37.4561C86.4128 37.4561 86.9771 37.2907 87.4027 36.9603C87.8282 36.6328 88.0412 36.1928 88.0412 35.6398Z" fill="#C9E4E7"/>
</g>
</g>
</g>
</g>
<g clip-path="url(#clip9_83_601)">
<g clip-path="url(#clip10_83_601)">
<path d="M24.8741 0.43988H7.81669C7.13918 0.43988 6.03034 0.43988 5.35317 0.43988H3.44993C2.77276 0.43988 1.80252 0.864416 1.2943 1.38232L1.02123 1.66082C0.512664 2.17952 0.0968475 3.24525 0.0968475 4.02888V5.11696V5.35356V38.9146C0.0968475 39.6983 0.65127 40.3399 1.32844 40.3399H22.7509C23.4291 40.3399 23.9825 39.6983 23.9825 38.9146V5.11696C23.9825 4.33292 23.4291 3.69173 22.7509 3.69173H8.43111C8.43111 3.17263 8.06735 2.75208 7.61982 2.75208C7.17228 2.75208 6.80956 3.17263 6.80956 3.69173V4.06001V13.474L4.76944 11.169L3.00412 13.474V3.69093H1.32844C1.31947 3.69093 1.31154 3.69333 1.30258 3.69412L2.6276 1.93813H6.58407H24.8538V37.5628H24.8734C25.5503 37.5628 26.1054 36.9212 26.1054 36.1376V1.86551C26.1057 1.08107 25.5513 0.43988 24.8741 0.43988Z" fill="#C9E4E7"/>
</g>
</g>
</g>
</g>
</g>
</g>
</g>
<defs>
<clipPath id="clip0_83_601">
<rect width="90" height="40.202" fill="white" transform="translate(0 0.289062)"/>
</clipPath>
<clipPath id="clip1_83_601">
<rect width="90" height="40.202" fill="white" transform="translate(0 0.289062)"/>
</clipPath>
<clipPath id="clip2_83_601">
<rect width="89.8063" height="40.0995" fill="white" transform="translate(0.0968475 0.340149)"/>
</clipPath>
<clipPath id="clip3_83_601">
<rect width="89.8063" height="40.0995" fill="white" transform="translate(0.0968475 0.340149)"/>
</clipPath>
<clipPath id="clip4_83_601">
<rect width="89.8063" height="40.0995" fill="white" transform="translate(0.0968475 0.340149)"/>
</clipPath>
<clipPath id="clip5_83_601">
<rect width="54.813" height="39.9" fill="white" transform="translate(35.0902 0.43988)"/>
</clipPath>
<clipPath id="clip6_83_601">
<rect width="54.813" height="39.9" fill="white" transform="translate(35.0902 0.43988)"/>
</clipPath>
<clipPath id="clip7_83_601">
<rect width="54.813" height="39.9" fill="white" transform="translate(35.0902 0.43988)"/>
</clipPath>
<clipPath id="clip8_83_601">
<rect width="54.813" height="39.9" fill="white" transform="translate(35.0902 0.43988)"/>
</clipPath>
<clipPath id="clip9_83_601">
<rect width="26.0085" height="39.9" fill="white" transform="translate(0.0968475 0.43988)"/>
</clipPath>
<clipPath id="clip10_83_601">
<rect width="26.0085" height="39.9" fill="white" transform="translate(0.0968475 0.43988)"/>
</clipPath>
</defs>
</svg>
