<svg width="27" height="41" viewBox="0 0 27 41" fill="none" xmlns="http://www.w3.org/2000/svg">
<g clip-path="url(#clip0_83_624)">
<g clip-path="url(#clip1_83_624)">
<path d="M24.8741 0.43988H7.81669C7.13918 0.43988 6.03034 0.43988 5.35317 0.43988H3.44993C2.77276 0.43988 1.80252 0.864416 1.2943 1.38232L1.02123 1.66082C0.512664 2.17952 0.0968475 3.24525 0.0968475 4.02888V5.11696V5.35356V38.9146C0.0968475 39.6983 0.65127 40.3399 1.32844 40.3399H22.7509C23.4291 40.3399 23.9825 39.6983 23.9825 38.9146V5.11696C23.9825 4.33292 23.4291 3.69173 22.7509 3.69173H8.43111C8.43111 3.17263 8.06735 2.75208 7.61982 2.75208C7.17228 2.75208 6.80956 3.17263 6.80956 3.69173V4.06001V13.474L4.76944 11.169L3.00412 13.474V3.69093H1.32844C1.31947 3.69093 1.31154 3.69333 1.30258 3.69412L2.6276 1.93813H6.58407H24.8538V37.5628H24.8734C25.5503 37.5628 26.1054 36.9212 26.1054 36.1376V1.86551C26.1057 1.08107 25.5513 0.43988 24.8741 0.43988Z" fill="#C9E4E7"/>
</g>
</g>
<defs>
<clipPath id="clip0_83_624">
<rect width="26.0085" height="39.9" fill="white" transform="translate(0.0968475 0.43988)"/>
</clipPath>
<clipPath id="clip1_83_624">
<rect width="26.0085" height="39.9" fill="white" transform="translate(0.0968475 0.43988)"/>
</clipPath>
</defs>
</svg>
