<svg width="40" height="40" viewBox="0 0 40 40" fill="none" xmlns="http://www.w3.org/2000/svg">
<path fill-rule="evenodd" clip-rule="evenodd" d="M37.5 30C37.5 30.2537 37.4512 30.4938 37.3812 30.7225L26.25 18.75L37.5 10V30ZM4.445 32.4325L15.725 20.4125L20 23.6438L24.09 20.3925L35.555 32.4325C35.3763 32.4738 4.62375 32.4738 4.445 32.4325ZM2.5 30V10L13.75 18.75L2.61875 30.7225C2.54875 30.4938 2.5 30.2537 2.5 30ZM36.25 7.5L20 20L3.75 7.5H36.25ZM35 5H5C2.23875 5 0 7.23875 0 10V30C0 32.7612 2.23875 35 5 35H35C37.7612 35 40 32.7612 40 30V10C40 7.23875 37.7612 5 35 5Z" fill="#789E9F"/>
</svg>
