<svg width="50" height="51" viewBox="0 0 50 51" fill="none" xmlns="http://www.w3.org/2000/svg">
<g clip-path="url(#clip0_83_526)">
<path d="M46.8085 7.30645V4.83243C46.8085 4.39171 46.4514 4.03458 46.0106 4.03458H28.1915C26.888 4.03458 25.7285 4.66299 25 5.63272C24.2715 4.6629 23.112 4.03458 21.8085 4.03458H3.98936C3.54863 4.03458 3.1915 4.39171 3.1915 4.83243V7.30635C1.37275 7.67706 0 9.28887 0 11.2154V38.875C0 41.0748 1.78955 42.8644 3.98936 42.8644H21.0908C21.4614 44.6831 23.0734 46.0559 25 46.0559C26.9265 46.0559 28.5385 44.6831 28.9093 42.8644H34.5775C35.0183 42.8644 35.3754 42.5072 35.3754 42.0665C35.3754 41.6258 35.0183 41.2687 34.5775 41.2687H28.1915C27.7508 41.2687 27.3937 41.6258 27.3937 42.0665C27.3937 43.3863 26.3198 44.4602 25 44.4602C23.6802 44.4602 22.6063 43.3863 22.6063 42.0665C22.6063 41.6258 22.2492 41.2687 21.8085 41.2687H3.98936C2.66953 41.2687 1.5957 40.1948 1.5957 38.875V11.2154C1.5957 10.1753 2.26279 9.28839 3.19141 8.95909V35.6836C3.19141 36.1243 3.54854 36.4815 3.98926 36.4815H21.8084C23.1282 36.4815 24.2021 37.5553 24.2021 38.8751C23.5349 38.3751 22.7058 38.0773 21.8084 38.0773H3.98936C3.54863 38.0773 3.1915 38.4344 3.1915 38.8751C3.1915 39.3158 3.54863 39.673 3.98936 39.673H21.8085C23.1283 39.673 24.2021 40.7468 24.2021 42.0666C24.2021 42.5073 24.5593 42.8645 25 42.8645C25.4407 42.8645 25.7979 42.5073 25.7979 42.0666C25.7979 40.7468 26.8717 39.673 28.1915 39.673H34.5775C35.0183 39.673 35.3754 39.3158 35.3754 38.8751C35.3754 38.4344 35.0183 38.0773 34.5775 38.0773H28.1915C27.2941 38.0773 26.4651 38.3751 25.7979 38.8772C25.7979 37.5554 26.8717 36.4816 28.1915 36.4816H36.9712V46.322C36.9712 46.5894 37.1052 46.8388 37.3279 46.9867C37.5504 47.1345 37.8324 47.1609 38.079 47.0572L40.2942 46.1239L42.5095 47.0572C42.6091 47.0991 42.7144 47.1198 42.8191 47.1198C42.9739 47.1198 43.1277 47.0748 43.2604 46.9867C43.4832 46.8388 43.6172 46.5893 43.6172 46.322V42.8646H46.0108C48.2106 42.8646 50.0002 41.075 50.0002 38.8752V11.2154C50 9.28887 48.6272 7.67706 46.8085 7.30645ZM24.2021 35.6856C23.535 35.1835 22.7059 34.8857 21.8085 34.8857H4.78721V5.63038H21.8085C23.1283 5.63038 24.2021 6.70421 24.2021 8.02403V35.6856ZM42.0213 45.1199L40.6039 44.5227C40.4058 44.4394 40.1825 44.4394 39.9844 44.5227L38.567 45.1199V36.4815H42.0213V45.1199ZM28.1915 34.8857C27.2941 34.8857 26.4651 35.1835 25.7979 35.6856V8.02393C25.7979 6.70411 26.8717 5.63028 28.1915 5.63028H45.2128V34.8856H28.1915V34.8857ZM48.4043 38.875C48.4043 40.1948 47.3305 41.2687 46.0106 41.2687H43.617V39.673H46.0106C46.4514 39.673 46.8085 39.3158 46.8085 38.8751C46.8085 38.4344 46.4514 38.0773 46.0106 38.0773H43.617V36.4816H46.0106C46.4514 36.4816 46.8085 36.1244 46.8085 35.6837V8.95909C47.7371 9.28848 48.4042 10.1754 48.4042 11.2154V38.875H48.4043Z" fill="#789E9F"/>
<path d="M20.7447 28.5026H8.24473C7.80401 28.5026 7.44688 28.8598 7.44688 29.3005C7.44688 29.7412 7.80401 30.0983 8.24473 30.0983H20.7447C21.1855 30.0983 21.5426 29.7412 21.5426 29.3005C21.5426 28.8598 21.1855 28.5026 20.7447 28.5026Z" fill="#789E9F"/>
<path d="M20.7447 23.9814H8.24473C7.80401 23.9814 7.44688 24.3386 7.44688 24.7793C7.44688 25.22 7.80401 25.5771 8.24473 25.5771H20.7447C21.1855 25.5771 21.5426 25.22 21.5426 24.7793C21.5426 24.3386 21.1855 23.9814 20.7447 23.9814Z" fill="#789E9F"/>
<path d="M20.7447 19.4601H8.24473C7.80401 19.4601 7.44688 19.8173 7.44688 20.258C7.44688 20.6987 7.80401 21.0558 8.24473 21.0558H20.7447C21.1855 21.0558 21.5426 20.6987 21.5426 20.258C21.5426 19.8173 21.1855 19.4601 20.7447 19.4601Z" fill="#789E9F"/>
<path d="M20.7447 14.9389H8.24473C7.80401 14.9389 7.44688 15.296 7.44688 15.7367C7.44688 16.1774 7.80401 16.5346 8.24473 16.5346H20.7447C21.1855 16.5346 21.5426 16.1774 21.5426 15.7367C21.5426 15.296 21.1855 14.9389 20.7447 14.9389Z" fill="#789E9F"/>
<path d="M20.7447 10.4176H8.24473C7.80401 10.4176 7.44688 10.7747 7.44688 11.2154C7.44688 11.6561 7.80401 12.0133 8.24473 12.0133H20.7447C21.1855 12.0133 21.5426 11.6561 21.5426 11.2154C21.5426 10.7747 21.1855 10.4176 20.7447 10.4176Z" fill="#789E9F"/>
<path d="M41.7553 28.5026H29.2553C28.8146 28.5026 28.4574 28.8598 28.4574 29.3005C28.4574 29.7412 28.8146 30.0983 29.2553 30.0983H41.7553C42.196 30.0983 42.5531 29.7412 42.5531 29.3005C42.5532 28.8598 42.1961 28.5026 41.7553 28.5026Z" fill="#789E9F"/>
<path d="M41.7553 17.1995C42.196 17.1995 42.5531 16.8424 42.5531 16.4016V11.2155C42.5531 10.7748 42.196 10.4177 41.7553 10.4177H29.2553C28.8146 10.4177 28.4574 10.7748 28.4574 11.2155V24.7793C28.4574 25.22 28.8146 25.5771 29.2553 25.5771H41.7553C42.196 25.5771 42.5531 25.22 42.5531 24.7793V19.5932C42.5531 19.1524 42.196 18.7953 41.7553 18.7953C41.3146 18.7953 40.9574 19.1524 40.9574 19.5932V23.9814H30.0531V12.0133H40.9574V16.4016C40.9574 16.8424 41.3146 17.1995 41.7553 17.1995Z" fill="#789E9F"/>
</g>
<defs>
<clipPath id="clip0_83_526">
<rect width="50" height="50" fill="white" transform="translate(0 0.577148)"/>
</clipPath>
</defs>
</svg>
