<svg width="50" height="51" viewBox="0 0 50 51" fill="none" xmlns="http://www.w3.org/2000/svg">
<path d="M47.6527 37.2987C47.5611 37.2984 47.4725 37.2659 47.4024 37.207C47.3323 37.148 47.2851 37.0663 47.2691 36.9761L44.5573 21.5954C44.5394 21.4935 44.5626 21.3886 44.622 21.3038C44.6813 21.219 44.7719 21.1612 44.8738 21.1432C45.0797 21.1054 45.2879 21.2469 45.326 21.4596L48.0379 36.8403C48.0478 36.8965 48.0452 36.9542 48.0304 37.0093C48.0156 37.0645 47.9889 37.1157 47.9522 37.1594C47.9155 37.203 47.8697 37.2382 47.8179 37.2622C47.7662 37.2863 47.7098 37.2988 47.6527 37.2987ZM48.06 39.6055C47.9683 39.6053 47.8797 39.5729 47.8095 39.5139C47.7394 39.455 47.6922 39.3732 47.6764 39.2829C47.3241 37.2895 39.6913 36.9219 34.9625 37.1606C34.7269 37.1713 34.5629 37.0051 34.553 36.79C34.5504 36.7389 34.5579 36.6877 34.5751 36.6395C34.5923 36.5913 34.6188 36.5469 34.6531 36.5089C34.6875 36.471 34.729 36.4401 34.7753 36.4182C34.8216 36.3963 34.8717 36.3837 34.9228 36.3812C36.246 36.3141 47.8587 35.8275 48.4452 39.1472C48.4541 39.1976 48.453 39.2494 48.4419 39.2994C48.4308 39.3494 48.41 39.3968 48.3806 39.4388C48.3512 39.4808 48.3139 39.5166 48.2706 39.5441C48.2274 39.5717 48.1792 39.5904 48.1287 39.5993C48.1058 39.6039 48.0828 39.6055 48.06 39.6055Z" fill="#789E9F"/>
<path d="M33.0431 26.3951C32.9514 26.3949 32.8628 26.3625 32.7927 26.3035C32.7225 26.2445 32.6753 26.1628 32.6594 26.0726C32.6414 25.9706 32.6647 25.8657 32.724 25.7809C32.7834 25.6961 32.874 25.6383 32.9759 25.6202C36.2916 25.0346 44.7617 22.756 44.1501 19.2877C44.1322 19.1858 44.1554 19.0809 44.2147 18.9961C44.274 18.9113 44.3646 18.8535 44.4665 18.8355C44.674 18.7977 44.8813 18.9392 44.9188 19.1519C45.294 21.2773 43.3807 23.1467 39.2322 24.7081C36.2581 25.8272 33.143 26.3835 33.1116 26.3889C33.089 26.3931 33.0661 26.3952 33.0431 26.3951Z" fill="#789E9F"/>
<path d="M44.5337 19.6103C44.442 19.6102 44.3533 19.5777 44.2832 19.5186C44.213 19.4596 44.1659 19.3777 44.1501 19.2874C44.1321 19.1855 44.1554 19.0806 44.2147 18.9958C44.274 18.911 44.3646 18.8532 44.4665 18.8351L46.0055 18.5644C46.2145 18.5308 46.4211 18.6689 46.4577 18.8817C46.4757 18.9837 46.4524 19.0886 46.3931 19.1734C46.3337 19.2582 46.2431 19.3159 46.1412 19.334L44.6023 19.6046C44.5797 19.6084 44.5567 19.6103 44.5337 19.6103Z" fill="#789E9F"/>
<path d="M49.5974 39.3348C49.5058 39.3344 49.4172 39.302 49.347 39.243C49.2769 39.184 49.2298 39.1023 49.2138 39.0121L45.6891 19.017C45.6711 18.9151 45.6943 18.8102 45.7537 18.7254C45.813 18.6406 45.9036 18.5828 46.0055 18.5647C46.2145 18.5269 46.4203 18.6684 46.4577 18.8812L49.9824 38.8764C49.9923 38.9326 49.9898 38.9902 49.975 39.0454C49.9602 39.1005 49.9335 39.1517 49.8968 39.1954C49.8601 39.2391 49.8143 39.2742 49.7626 39.2983C49.7108 39.3224 49.6544 39.3348 49.5974 39.3348Z" fill="#789E9F"/>
<path d="M48.06 39.6055C47.9621 39.6057 47.8678 39.5692 47.7957 39.5031C47.7235 39.4371 47.6788 39.3464 47.6703 39.2489C47.6619 39.1515 47.6904 39.0544 47.7501 38.9769C47.8098 38.8995 47.8965 38.8473 47.9929 38.8307L49.5302 38.5601C49.7368 38.5204 49.9442 38.663 49.9824 38.8765C50.0003 38.9784 49.9771 39.0833 49.9178 39.168C49.8584 39.2528 49.7679 39.3106 49.666 39.3287L48.1286 39.5993C48.106 39.6036 48.083 39.6057 48.06 39.6055ZM27.252 38.5173C27.1603 38.517 27.0717 38.4845 27.0016 38.4255C26.9315 38.3666 26.8844 38.2848 26.8684 38.1946L24.9695 27.4284C24.9605 27.378 24.9616 27.3263 24.9727 27.2763C24.9838 27.2262 25.0048 27.1789 25.0344 27.1371C25.0634 27.0948 25.1007 27.0588 25.1439 27.0312C25.1871 27.0036 25.2355 26.9849 25.286 26.9763L32.976 25.6203C33.1826 25.5815 33.39 25.724 33.4282 25.9368C33.4462 26.0388 33.4229 26.1436 33.3636 26.2284C33.3042 26.3132 33.2136 26.371 33.1117 26.3891L25.8061 27.6771L27.5692 37.6746L34.8749 36.3866C35.0839 36.3478 35.2897 36.4903 35.3271 36.703C35.345 36.8049 35.3217 36.9098 35.2624 36.9946C35.2031 37.0794 35.1125 37.1372 35.0106 37.1553L27.3207 38.5112C27.2977 38.515 27.2748 38.5173 27.252 38.5173Z" fill="#789E9F"/>
<path d="M27.2526 38.5173C27.2257 38.5176 27.1989 38.5147 27.1727 38.5089L23.0562 37.6486C22.9798 37.6328 22.9099 37.5944 22.8557 37.5384C22.8014 37.4823 22.7653 37.4112 22.752 37.3344L21.396 29.6445C21.3823 29.5676 21.392 29.4884 21.4238 29.4172C21.4556 29.3459 21.5081 29.2859 21.5745 29.2448L25.1479 27.0288C25.2024 26.9957 25.264 26.9762 25.3276 26.972C25.3912 26.9677 25.4549 26.9789 25.5133 27.0044C25.5715 27.0303 25.6225 27.0702 25.6617 27.1205C25.7009 27.1707 25.7272 27.2299 25.7382 27.2927L27.637 38.0589C27.6482 38.1217 27.6438 38.1862 27.6242 38.2469C27.6045 38.3076 27.5702 38.3624 27.5242 38.4067C27.4517 38.4777 27.3542 38.5174 27.2526 38.5173ZM23.4748 36.9379L26.7678 37.6266L25.0694 27.9958L22.2104 29.7696L23.4748 36.9379ZM34.6704 35.6226C34.5788 35.6223 34.4902 35.5898 34.4201 35.5308C34.35 35.4719 34.3028 35.3901 34.2868 35.2999L32.9309 27.61C32.9129 27.5081 32.9362 27.4032 32.9955 27.3184C33.0548 27.2336 33.1454 27.1758 33.2473 27.1577C33.4563 27.1189 33.6621 27.2608 33.6995 27.4742L35.0555 35.1642C35.0654 35.2204 35.0628 35.2781 35.048 35.3332C35.0333 35.3883 35.0066 35.4395 34.9699 35.4832C34.9332 35.5269 34.8873 35.562 34.8356 35.5861C34.7839 35.6102 34.7275 35.6226 34.6704 35.6226Z" fill="#789E9F"/>
<path d="M23.5885 31.2331C23.4968 31.233 23.4081 31.2007 23.3379 31.1416C23.2677 31.0826 23.2206 31.0008 23.2049 30.9104C23.1869 30.8084 23.2102 30.7035 23.2695 30.6186C23.3288 30.5336 23.4193 30.4757 23.5213 30.4574L24.29 30.3232C24.499 30.2866 24.7049 30.4269 24.7422 30.6405C24.7511 30.6909 24.75 30.7426 24.7389 30.7926C24.7278 30.8426 24.707 30.8899 24.6776 30.9318C24.6482 30.9738 24.6108 31.0095 24.5676 31.0369C24.5244 31.0644 24.4762 31.0831 24.4258 31.0919L23.657 31.2277C23.6343 31.231 23.6114 31.2328 23.5885 31.2331ZM24.4014 35.8475C24.3096 35.8474 24.2208 35.8149 24.1506 35.7557C24.0804 35.6966 24.0334 35.6146 24.0178 35.5241C24.0088 35.4736 24.01 35.4219 24.0211 35.3718C24.0322 35.3218 24.0531 35.2745 24.0826 35.2325C24.1121 35.1906 24.1495 35.1548 24.1928 35.1274C24.2361 35.1 24.2844 35.0814 24.335 35.0727L25.1053 34.9369C25.3142 34.9019 25.5193 35.0421 25.5566 35.2541C25.5746 35.3562 25.5513 35.4613 25.4918 35.5462C25.4323 35.6312 25.3416 35.6891 25.2395 35.7071L24.4692 35.8413C24.4469 35.8456 24.4241 35.8477 24.4014 35.8475ZM23.9957 33.5406C23.9041 33.5403 23.8155 33.5078 23.7454 33.4489C23.6753 33.3899 23.6281 33.3082 23.6121 33.218C23.5942 33.116 23.6174 33.0112 23.6768 32.9264C23.7361 32.8416 23.8266 32.7838 23.9285 32.7657L24.6973 32.63C24.9031 32.5903 25.1114 32.733 25.1494 32.9464C25.1673 33.0483 25.1441 33.1532 25.0848 33.238C25.0254 33.3227 24.9349 33.3805 24.833 33.3986L24.0643 33.5345C24.0415 33.5384 24.0186 33.5406 23.9957 33.5406ZM26.0547 27.231C25.957 27.2309 25.8629 27.1943 25.791 27.1282C25.719 27.0622 25.6744 26.9716 25.666 26.8743C25.6576 26.7771 25.6859 26.6801 25.7454 26.6027C25.8049 26.5253 25.8913 26.473 25.9875 26.4562L27.5249 26.1847C27.7308 26.1469 27.939 26.2884 27.9771 26.5011C27.9951 26.603 27.9718 26.7079 27.9125 26.7927C27.8531 26.8775 27.7626 26.9353 27.6606 26.9533L26.1233 27.2248C26.1005 27.2287 26.0775 27.231 26.0547 27.231ZM37.746 48.5606C37.6737 48.5607 37.6027 48.5405 37.5412 48.5026C37.4796 48.4646 37.4299 48.4102 37.3975 48.3455L33.734 41.0629C33.6371 40.8698 33.7142 40.6351 33.907 40.539C34.0977 40.4413 34.3333 40.5184 34.431 40.712L38.0944 47.9947C38.1913 48.1877 38.1143 48.4226 37.9214 48.5187C37.8671 48.5465 37.807 48.5609 37.746 48.5606ZM33.901 49.2393C33.8287 49.2393 33.7578 49.2192 33.6962 49.1812C33.6347 49.1432 33.5849 49.0889 33.5525 49.0242L29.889 41.7399C29.7922 41.547 29.8692 41.3121 30.0621 41.2161C30.2535 41.1185 30.4884 41.1947 30.5859 41.3892L34.2495 48.6734C34.3463 48.8664 34.2693 49.1013 34.0764 49.1973C34.0221 49.2252 33.962 49.2396 33.901 49.2393Z" fill="#789E9F"/>
<path d="M33.13 49.3743C33.0383 49.3741 32.9497 49.3417 32.8795 49.2827C32.8094 49.2237 32.7623 49.1419 32.7464 49.0517C32.7375 49.0012 32.7386 48.9495 32.7496 48.8994C32.7607 48.8494 32.7815 48.802 32.8109 48.76C32.8403 48.718 32.8777 48.6822 32.9209 48.6547C32.9641 48.6271 33.0123 48.6083 33.0628 48.5994L38.4468 47.65C38.6541 47.6111 38.8608 47.7529 38.8989 47.9664C38.9168 48.0683 38.8936 48.1732 38.8343 48.258C38.7749 48.3428 38.6844 48.4006 38.5825 48.4187L33.1986 49.3682C33.176 49.3725 33.153 49.3746 33.13 49.3743ZM28.4279 40.6892C28.3363 40.6889 28.2477 40.6565 28.1776 40.5975C28.1075 40.5385 28.0603 40.4568 28.0443 40.3666L27.8918 39.5011C27.8829 39.4506 27.884 39.3989 27.8951 39.3488C27.9061 39.2988 27.927 39.2514 27.9564 39.2094C27.9857 39.1674 28.0231 39.1316 28.0664 39.104C28.1096 39.0765 28.1578 39.0577 28.2083 39.0488C28.4149 39.0092 28.6224 39.1525 28.6604 39.3653L28.813 40.2309C28.8229 40.2871 28.8203 40.3447 28.8055 40.3998C28.7907 40.4549 28.764 40.5061 28.7273 40.5498C28.6906 40.5935 28.6448 40.6286 28.5931 40.6527C28.5414 40.6768 28.485 40.6892 28.4279 40.6892Z" fill="#789E9F"/>
<path d="M28.4279 40.6892C28.336 40.689 28.247 40.6564 28.1767 40.5972C28.1064 40.5379 28.0593 40.4557 28.0436 40.3651C28.026 40.263 28.0498 40.1581 28.1095 40.0735C28.1693 39.9888 28.2602 39.9313 28.3623 39.9137L35.2866 38.7164C35.3886 38.6998 35.493 38.724 35.5774 38.7836C35.6618 38.8432 35.7195 38.9335 35.738 39.0352C35.7555 39.1373 35.7318 39.2422 35.672 39.3268C35.6122 39.4115 35.5213 39.4689 35.4192 39.4866L28.4949 40.6839C28.4728 40.6868 28.45 40.6892 28.4279 40.6892Z" fill="#789E9F"/>
<path d="M35.3521 39.4919C35.2605 39.4916 35.1719 39.4591 35.1018 39.4002C35.0317 39.3412 34.9845 39.2594 34.9686 39.1692L34.8328 38.4006C34.8149 38.2987 34.8381 38.1938 34.8975 38.109C34.9568 38.0242 35.0473 37.9664 35.1492 37.9483C35.3574 37.9095 35.5641 38.052 35.6015 38.2648L35.7372 39.0335C35.7471 39.0897 35.7446 39.1474 35.7298 39.2025C35.715 39.2576 35.6883 39.3088 35.6516 39.3525C35.6149 39.3962 35.5691 39.4313 35.5173 39.4554C35.4656 39.4795 35.4092 39.4919 35.3521 39.4919ZM49.5981 26.7162C49.5469 26.7162 49.4961 26.7062 49.4487 26.6866C49.4013 26.667 49.3582 26.6382 49.322 26.6019C49.2857 26.5657 49.257 26.5226 49.2374 26.4752C49.2177 26.4278 49.2077 26.3771 49.2077 26.3258V2.89901C49.2077 2.68319 49.3823 2.50848 49.5981 2.50848C49.814 2.50848 49.9886 2.68319 49.9886 2.89901V26.3258C49.9886 26.3771 49.9785 26.4278 49.9589 26.4752C49.9393 26.5226 49.9106 26.5657 49.8743 26.6019C49.838 26.6382 49.795 26.667 49.7476 26.6866C49.7002 26.7062 49.6494 26.7162 49.5981 26.7162ZM5.08721 37.6487C5.03593 37.6487 4.98515 37.6387 4.93777 37.619C4.89038 37.5994 4.84733 37.5707 4.81107 37.5344C4.77481 37.4982 4.74606 37.4551 4.72644 37.4077C4.70683 37.3604 4.69675 37.3096 4.69678 37.2583V2.89901C4.69675 2.84773 4.70683 2.79694 4.72644 2.74956C4.74605 2.70217 4.77481 2.65911 4.81107 2.62284C4.84733 2.58658 4.89038 2.55781 4.93776 2.53819C4.98514 2.51856 5.03592 2.50847 5.08721 2.50848C5.1385 2.50846 5.18929 2.51854 5.23669 2.53816C5.28408 2.55778 5.32714 2.58654 5.36341 2.62281C5.39968 2.65908 5.42844 2.70214 5.44806 2.74953C5.46768 2.79693 5.47776 2.84772 5.47773 2.89901V37.2583C5.47776 37.3096 5.46768 37.3604 5.44806 37.4078C5.42844 37.4551 5.39967 37.4982 5.3634 37.5345C5.32713 37.5707 5.28407 37.5995 5.23668 37.6191C5.18929 37.6387 5.13849 37.6488 5.08721 37.6487Z" fill="#789E9F"/>
<path d="M2.74453 39.9913C2.69325 39.9913 2.64246 39.9813 2.59508 39.9617C2.54769 39.942 2.50463 39.9133 2.46837 39.877C2.43211 39.8408 2.40335 39.7977 2.38374 39.7503C2.36414 39.7029 2.35406 39.6521 2.3541 39.6009C2.35408 39.5496 2.36416 39.4988 2.38377 39.4514C2.40338 39.404 2.43214 39.361 2.4684 39.3247C2.50466 39.2885 2.54771 39.2597 2.59509 39.2401C2.64247 39.2205 2.69325 39.2104 2.74453 39.2104C3.82129 39.2104 4.69678 38.335 4.69678 37.2583C4.69675 37.207 4.70683 37.1562 4.72645 37.1088C4.74606 37.0615 4.77482 37.0184 4.81108 36.9822C4.84734 36.9459 4.89039 36.9171 4.93777 36.8975C4.98515 36.8779 5.03593 36.8678 5.08721 36.8679C5.1385 36.8678 5.18929 36.8779 5.23668 36.8975C5.28407 36.9171 5.32713 36.9459 5.3634 36.9821C5.39967 37.0184 5.42844 37.0614 5.44806 37.1088C5.46768 37.1562 5.47776 37.207 5.47774 37.2583C5.47774 38.765 4.25147 39.9913 2.74453 39.9913Z" fill="#789E9F"/>
<path d="M2.74453 39.9913C1.2376 39.9913 0.011425 38.765 0.011425 37.2583C0.011425 37.0425 0.186034 36.8679 0.401855 36.8679C0.617675 36.8679 0.792284 37.0425 0.792284 37.2583C0.792284 38.335 1.66777 39.2104 2.74453 39.2104C2.79581 39.2104 2.84659 39.2205 2.89397 39.2401C2.94135 39.2597 2.9844 39.2885 3.02066 39.3247C3.05692 39.361 3.08568 39.404 3.10529 39.4514C3.1249 39.4988 3.13499 39.5496 3.13496 39.6009C3.13501 39.6522 3.12495 39.7029 3.10535 39.7503C3.08574 39.7977 3.05699 39.8408 3.02072 39.8771C2.98446 39.9133 2.94139 39.9421 2.894 39.9617C2.84661 39.9813 2.79582 39.9913 2.74453 39.9913Z" fill="#789E9F"/>
<path d="M0.401855 37.6487C0.350572 37.6488 0.299785 37.6387 0.252398 37.6191C0.205012 37.5995 0.161956 37.5707 0.125693 37.5345C0.089431 37.4982 0.0606736 37.4552 0.0410664 37.4078C0.0214591 37.3604 0.0113866 37.3096 0.0114251 37.2583V5.24161C0.0114251 5.02579 0.186034 4.85118 0.401855 4.85118C0.617675 4.85118 0.792284 5.02579 0.792284 5.24161V37.2583C0.792323 37.3096 0.782251 37.3604 0.762643 37.4078C0.743036 37.4552 0.714279 37.4982 0.678016 37.5345C0.641754 37.5707 0.598698 37.5995 0.551311 37.6191C0.503925 37.6387 0.453138 37.6488 0.401855 37.6487ZM3.52549 37.6487C3.4742 37.6488 3.42342 37.6387 3.37603 37.6191C3.32864 37.5995 3.28559 37.5707 3.24933 37.5345C3.21306 37.4982 3.18431 37.4552 3.1647 37.4078C3.14509 37.3604 3.13502 37.3096 3.13506 37.2583V3.67989C3.13506 3.46407 3.30967 3.28946 3.52549 3.28946C3.74131 3.28946 3.91592 3.46407 3.91592 3.67989V37.2583C3.91596 37.3096 3.90588 37.3604 3.88628 37.4078C3.86667 37.4552 3.83791 37.4982 3.80165 37.5345C3.76539 37.5707 3.72233 37.5995 3.67494 37.6191C3.62756 37.6387 3.57677 37.6488 3.52549 37.6487ZM1.96367 37.6487C1.91239 37.6488 1.86161 37.6387 1.81423 37.6191C1.76685 37.5995 1.7238 37.5707 1.68754 37.5344C1.65128 37.4982 1.62252 37.4551 1.60291 37.4077C1.5833 37.3604 1.57322 37.3096 1.57324 37.2583V4.46075C1.57322 4.40947 1.5833 4.35869 1.60291 4.31131C1.62252 4.26393 1.65128 4.22088 1.68754 4.18462C1.7238 4.14836 1.76685 4.1196 1.81423 4.09999C1.86161 4.08037 1.91239 4.07029 1.96367 4.07032C2.01496 4.07028 2.06575 4.08035 2.11314 4.09996C2.16053 4.11956 2.2036 4.14832 2.23987 4.18458C2.27614 4.22084 2.3049 4.2639 2.32452 4.31128C2.34414 4.35867 2.35422 4.40946 2.3542 4.46075V37.2583C2.35421 37.3096 2.34412 37.3604 2.3245 37.4078C2.30487 37.4551 2.27611 37.4982 2.23984 37.5344C2.20357 37.5707 2.16051 37.5995 2.11313 37.6191C2.06574 37.6387 2.01495 37.6488 1.96367 37.6487Z" fill="#789E9F"/>
<path d="M2.74453 38.4296C2.52871 38.4296 2.3541 38.255 2.3541 38.0391C2.3541 37.8233 2.52871 37.6487 2.74453 37.6487C2.84802 37.6485 2.94721 37.6073 3.02038 37.5341C3.09356 37.461 3.13476 37.3618 3.13496 37.2583C3.13496 37.0425 3.30957 36.8679 3.52539 36.8679C3.74121 36.8679 3.91582 37.0425 3.91582 37.2583C3.91592 37.9041 3.39053 38.4296 2.74453 38.4296Z" fill="#789E9F"/>
<path d="M2.74453 38.4296C2.09863 38.4296 1.57314 37.9041 1.57314 37.2583C1.57312 37.207 1.5832 37.1562 1.60281 37.1088C1.62242 37.0615 1.65118 37.0184 1.68744 36.9822C1.7237 36.9459 1.76675 36.9171 1.81413 36.8975C1.86151 36.8779 1.91229 36.8678 1.96357 36.8679C2.01486 36.8678 2.06565 36.8779 2.11304 36.8975C2.16044 36.9171 2.2035 36.9459 2.23977 36.9821C2.27604 37.0184 2.30481 37.0614 2.32442 37.1088C2.34404 37.1562 2.35413 37.207 2.3541 37.2583C2.35431 37.3618 2.39551 37.461 2.46868 37.5341C2.54186 37.6073 2.64104 37.6485 2.74453 37.6487C2.96035 37.6487 3.13496 37.8233 3.13496 38.0392C3.13496 38.255 2.96035 38.4296 2.74453 38.4296ZM24.6827 39.9913H2.74453C2.69325 39.9913 2.64246 39.9813 2.59507 39.9617C2.54769 39.9421 2.50463 39.9133 2.46837 39.877C2.43211 39.8408 2.40335 39.7977 2.38374 39.7503C2.36413 39.7029 2.35406 39.6522 2.3541 39.6009C2.35407 39.5496 2.36416 39.4988 2.38377 39.4514C2.40338 39.404 2.43214 39.361 2.4684 39.3247C2.50466 39.2885 2.54771 39.2597 2.59509 39.2401C2.64247 39.2205 2.69325 39.2104 2.74453 39.2104H24.6827C24.734 39.2104 24.7848 39.2205 24.8322 39.2401C24.8796 39.2597 24.9226 39.2885 24.9589 39.3247C24.9951 39.361 25.0239 39.404 25.0435 39.4514C25.0632 39.4988 25.0733 39.5496 25.0732 39.6009C25.0733 39.6522 25.0632 39.7029 25.0436 39.7503C25.0239 39.7977 24.9952 39.8408 24.9589 39.877C24.9226 39.9133 24.8796 39.9421 24.8322 39.9617C24.7848 39.9813 24.734 39.9913 24.6827 39.9913ZM49.5981 3.28944H5.08721C5.03593 3.28945 4.98515 3.27936 4.93778 3.25975C4.8904 3.24013 4.84736 3.21137 4.8111 3.17512C4.77484 3.13886 4.74609 3.09581 4.72647 3.04844C4.70685 3.00106 4.69676 2.95029 4.69678 2.89901C4.69675 2.84773 4.70683 2.79694 4.72644 2.74956C4.74605 2.70217 4.77481 2.65911 4.81107 2.62284C4.84733 2.58658 4.89038 2.55781 4.93776 2.53819C4.98514 2.51856 5.03592 2.50847 5.08721 2.50848H49.5981C49.6494 2.50846 49.7002 2.51854 49.7476 2.53816C49.795 2.55778 49.838 2.58655 49.8743 2.62282C49.9106 2.65909 49.9393 2.70215 49.9589 2.74954C49.9785 2.79693 49.9886 2.84772 49.9886 2.89901C49.9886 2.95029 49.9785 3.00107 49.9589 3.04845C49.9393 3.09583 49.9105 3.13888 49.8743 3.17514C49.838 3.2114 49.795 3.24016 49.7476 3.25977C49.7002 3.27939 49.6494 3.28947 49.5981 3.28944ZM46.4745 11.0983H9.77256C9.72127 11.0984 9.67049 11.0883 9.6231 11.0687C9.57571 11.0491 9.53266 11.0203 9.4964 10.9841C9.46013 10.9478 9.43138 10.9047 9.41177 10.8574C9.39216 10.81 9.38209 10.7592 9.38213 10.7079V6.02255C9.38209 5.97126 9.39216 5.92047 9.41177 5.87308C9.43137 5.82568 9.46013 5.78262 9.49639 5.74635C9.53265 5.71008 9.57571 5.68131 9.62309 5.6617C9.67048 5.64208 9.72127 5.63199 9.77256 5.63202H46.4745C46.5258 5.63199 46.5766 5.64208 46.624 5.6617C46.6714 5.68131 46.7144 5.71008 46.7507 5.74635C46.7869 5.78262 46.8157 5.82568 46.8353 5.87308C46.8549 5.92047 46.865 5.97126 46.8649 6.02255V10.7079C46.865 10.7592 46.8549 10.81 46.8353 10.8574C46.8157 10.9047 46.7869 10.9478 46.7507 10.9841C46.7144 11.0203 46.6714 11.0491 46.624 11.0687C46.5766 11.0883 46.5258 11.0984 46.4745 11.0983ZM10.163 10.3175H46.0841V6.41298H10.163V10.3175Z" fill="#789E9F"/>
<path d="M44.1318 8.75565H12.1152C11.8994 8.75565 11.7248 8.58104 11.7248 8.36522C11.7248 8.1494 11.8994 7.97479 12.1152 7.97479H44.1318C44.3477 7.97479 44.5223 8.1494 44.5223 8.36522C44.5223 8.58104 44.3477 8.75565 44.1318 8.75565ZM44.9127 39.9913H37.8847C37.8334 39.9913 37.7826 39.9813 37.7352 39.9617C37.6878 39.942 37.6448 39.9133 37.6085 39.877C37.5722 39.8408 37.5435 39.7977 37.5239 39.7503C37.5043 39.7029 37.4942 39.6521 37.4942 39.6009C37.4942 39.5496 37.5043 39.4988 37.5239 39.4514C37.5435 39.404 37.5723 39.361 37.6085 39.3247C37.6448 39.2885 37.6878 39.2597 37.7352 39.2401C37.7826 39.2205 37.8334 39.2104 37.8847 39.2104H44.9127C44.964 39.2104 45.0148 39.2205 45.0621 39.2401C45.1095 39.2597 45.1526 39.2884 45.1889 39.3247C45.2251 39.361 45.2539 39.404 45.2735 39.4514C45.2931 39.4988 45.3032 39.5496 45.3031 39.6009C45.3032 39.6521 45.2931 39.7029 45.2735 39.7503C45.2539 39.7977 45.2251 39.8408 45.1889 39.8771C45.1526 39.9133 45.1096 39.9421 45.0622 39.9617C45.0148 39.9813 44.964 39.9913 44.9127 39.9913ZM20.7052 21.2499H9.77256C9.72128 21.2499 9.67049 21.2399 9.6231 21.2202C9.57572 21.2006 9.53266 21.1719 9.4964 21.1356C9.46014 21.0994 9.43138 21.0563 9.41177 21.0089C9.39216 20.9615 9.38209 20.9107 9.38213 20.8595V13.8314C9.38209 13.7801 9.39216 13.7294 9.41177 13.682C9.43138 13.6346 9.46014 13.5915 9.4964 13.5553C9.53266 13.519 9.57572 13.4903 9.6231 13.4706C9.67049 13.451 9.72128 13.441 9.77256 13.441H20.7051C20.7564 13.441 20.8071 13.4511 20.8545 13.4707C20.9019 13.4903 20.945 13.519 20.9812 13.5553C21.0175 13.5916 21.0462 13.6346 21.0658 13.682C21.0855 13.7294 21.0955 13.7802 21.0955 13.8314V20.8595C21.0955 20.9107 21.0855 20.9615 21.0659 21.0089C21.0463 21.0563 21.0175 21.0993 20.9813 21.1356C20.945 21.1718 20.902 21.2006 20.8546 21.2202C20.8072 21.2398 20.7564 21.2499 20.7052 21.2499ZM10.163 20.469H20.3146V14.2219H10.163V20.469Z" fill="#789E9F"/>
<path d="M14.458 20.469C14.3856 20.4689 14.3146 20.4486 14.253 20.4105C14.1914 20.3723 14.1417 20.3178 14.1092 20.2531C14.0768 20.1883 14.063 20.1158 14.0694 20.0436C14.0758 19.9715 14.102 19.9025 14.1453 19.8444L16.488 16.7209C16.5503 16.6382 16.6428 16.5836 16.7452 16.5689C16.8477 16.5543 16.9518 16.5808 17.0348 16.6428C17.1175 16.7049 17.1723 16.7973 17.187 16.8997C17.2017 17.0021 17.1753 17.1062 17.1134 17.1892L14.7707 20.3127C14.7343 20.3613 14.6871 20.4007 14.6328 20.4278C14.5785 20.4549 14.5187 20.4691 14.458 20.469Z" fill="#789E9F"/>
<path d="M19.1433 20.469C19.0826 20.4691 19.0227 20.455 18.9685 20.4278C18.9142 20.4007 18.867 20.3613 18.8307 20.3127L16.488 17.1891C16.4261 17.1062 16.3996 17.0022 16.4143 16.8997C16.429 16.7973 16.4837 16.7049 16.5665 16.6428C16.6075 16.612 16.6542 16.5896 16.7039 16.5768C16.7536 16.5641 16.8053 16.5613 16.8561 16.5685C16.9069 16.5758 16.9557 16.593 16.9998 16.6191C17.044 16.6453 17.0825 16.6798 17.1133 16.7209L19.456 19.8444C19.4992 19.9025 19.5255 19.9715 19.5319 20.0436C19.5383 20.1158 19.5245 20.1883 19.492 20.2531C19.4596 20.3178 19.4098 20.3723 19.3482 20.4105C19.2867 20.4486 19.2157 20.4689 19.1433 20.469ZM12.1153 20.469C12.0447 20.469 11.9753 20.4498 11.9147 20.4135C11.8541 20.3772 11.8045 20.3251 11.7711 20.2628C11.7378 20.2005 11.722 20.1303 11.7254 20.0597C11.7288 19.9891 11.7513 19.9208 11.7904 19.862L13.3522 17.5193C13.4098 17.4333 13.4991 17.3736 13.6006 17.3533C13.7021 17.3331 13.8075 17.3538 13.8937 17.4111C13.9798 17.4686 14.0396 17.5579 14.0599 17.6594C14.0802 17.7609 14.0594 17.8664 14.002 17.9525L12.4401 20.2952C12.4045 20.3487 12.3562 20.3925 12.2995 20.4229C12.2429 20.4532 12.1796 20.469 12.1153 20.469Z" fill="#789E9F"/>
<path d="M14.1972 18.9073C14.1329 18.9073 14.0696 18.8915 14.0129 18.8612C13.9562 18.8308 13.9079 18.787 13.8723 18.7335L13.3521 17.9525C13.3237 17.9099 13.3039 17.862 13.294 17.8117C13.284 17.7614 13.2841 17.7097 13.2941 17.6594C13.3042 17.6091 13.3241 17.5613 13.3526 17.5187C13.3811 17.4761 13.4178 17.4396 13.4605 17.4111C13.6381 17.2913 13.8814 17.3398 14.0019 17.5193L14.5219 18.3003C14.5611 18.3591 14.5837 18.4274 14.5871 18.498C14.5905 18.5686 14.5747 18.6388 14.5414 18.7011C14.5081 18.7634 14.4584 18.8155 14.3978 18.8518C14.3372 18.8882 14.2678 18.9073 14.1972 18.9073ZM12.1153 17.3455C11.4694 17.3455 10.9439 16.8201 10.9439 16.1742C10.9439 15.5283 11.4693 15.0028 12.1153 15.0028C12.7613 15.0028 13.2866 15.5283 13.2866 16.1742C13.2866 16.8201 12.7612 17.3455 12.1153 17.3455ZM12.1153 15.7837C11.9003 15.7837 11.7249 15.9587 11.7249 16.1741C11.7249 16.3896 11.9003 16.5646 12.1153 16.5646C12.3304 16.5646 12.5058 16.3896 12.5058 16.1741C12.5058 15.9587 12.3304 15.7837 12.1153 15.7837Z" fill="#789E9F"/>
<path d="M33.1994 14.2219H23.0478C22.8319 14.2219 22.6572 14.0473 22.6572 13.8314C22.6572 13.6156 22.8319 13.441 23.0478 13.441H33.1994C33.4152 13.441 33.5898 13.6156 33.5898 13.8314C33.5898 14.0473 33.4152 14.2219 33.1994 14.2219Z" fill="#789E9F"/>
<path d="M33.1994 16.5646H23.0478C22.8319 16.5646 22.6572 16.3899 22.6572 16.1741C22.6572 15.9583 22.8319 15.7837 23.0478 15.7837H33.1994C33.4152 15.7837 33.5898 15.9583 33.5898 16.1741C33.5898 16.3899 33.4152 16.5646 33.1994 16.5646Z" fill="#789E9F"/>
<path d="M33.1994 18.9073H23.0478C22.8319 18.9073 22.6572 18.7327 22.6572 18.5169C22.6572 18.3011 22.8319 18.1264 23.0478 18.1264H33.1994C33.4152 18.1264 33.5898 18.3011 33.5898 18.5169C33.5898 18.7327 33.4152 18.9073 33.1994 18.9073Z" fill="#789E9F"/>
<path d="M33.1994 21.2499H23.0478C22.8319 21.2499 22.6572 21.0753 22.6572 20.8595C22.6572 20.6437 22.8319 20.4691 23.0478 20.4691H33.1994C33.4152 20.4691 33.5898 20.6437 33.5898 20.8595C33.5898 21.0753 33.4152 21.2499 33.1994 21.2499Z" fill="#789E9F"/>
<path d="M33.1994 23.5926H23.0478C22.8319 23.5926 22.6572 23.418 22.6572 23.2021C22.6572 22.9863 22.8319 22.8117 23.0478 22.8117H33.1994C33.4152 22.8117 33.5898 22.9863 33.5898 23.2021C33.5898 23.418 33.4152 23.5926 33.1994 23.5926Z" fill="#789E9F"/>
<path d="M24.6096 25.9353H23.0478C22.8319 25.9353 22.6572 25.7607 22.6572 25.5449C22.6572 25.3291 22.8319 25.1545 23.0478 25.1545H24.6096C24.8254 25.1545 25 25.3291 25 25.5449C25 25.7607 24.8254 25.9353 24.6096 25.9353Z" fill="#789E9F"/>
<path d="M20.7417 23.5926H9.80918C9.59336 23.5926 9.41875 23.418 9.41875 23.2021C9.41875 22.9863 9.59336 22.8117 9.80918 22.8117H20.7417C20.9575 22.8117 21.1321 22.9863 21.1321 23.2021C21.1321 23.418 20.9575 23.5926 20.7417 23.5926Z" fill="#789E9F"/>
<path d="M19.1799 32.9633H9.80918C9.59336 32.9633 9.41875 32.7887 9.41875 32.5729C9.41875 32.357 9.59336 32.1824 9.80918 32.1824H19.1799C19.3957 32.1824 19.5703 32.357 19.5703 32.5729C19.5703 32.7887 19.3957 32.9633 19.1799 32.9633Z" fill="#789E9F"/>
<path d="M19.9607 35.3061H9.80918C9.59336 35.3061 9.41875 35.1315 9.41875 34.9156C9.41875 34.6998 9.59336 34.5252 9.80918 34.5252H19.9607C20.1766 34.5252 20.3512 34.6998 20.3512 34.9156C20.3512 35.1315 20.1766 35.3061 19.9607 35.3061Z" fill="#789E9F"/>
<path d="M20.7417 37.6487H9.80918C9.59336 37.6487 9.41875 37.4741 9.41875 37.2583C9.41875 37.0425 9.59336 36.8679 9.80918 36.8679H20.7417C20.9575 36.8679 21.1321 37.0425 21.1321 37.2583C21.1321 37.4741 20.9575 37.6487 20.7417 37.6487Z" fill="#789E9F"/>
<path d="M20.7417 25.9353H9.80918C9.59336 25.9353 9.41875 25.7607 9.41875 25.5449C9.41875 25.3291 9.59336 25.1545 9.80918 25.1545H20.7417C20.9575 25.1545 21.1321 25.3291 21.1321 25.5449C21.1321 25.7607 20.9575 25.9353 20.7417 25.9353Z" fill="#789E9F"/>
<path d="M19.9607 28.278H9.80918C9.59336 28.278 9.41875 28.1034 9.41875 27.8876C9.41875 27.6718 9.59336 27.4971 9.80918 27.4971H19.9607C20.1766 27.4971 20.3512 27.6718 20.3512 27.8876C20.3512 28.1034 20.1766 28.278 19.9607 28.278Z" fill="#789E9F"/>
<path d="M19.1799 30.6207H9.80918C9.7579 30.6207 9.70712 30.6107 9.65974 30.591C9.61236 30.5714 9.56931 30.5427 9.53305 30.5064C9.49679 30.4702 9.46803 30.4271 9.44842 30.3797C9.42881 30.3323 9.41873 30.2816 9.41875 30.2303C9.41871 30.179 9.42878 30.1282 9.44839 30.0808C9.468 30.0334 9.49675 29.9904 9.53301 29.9541C9.56927 29.9178 9.61233 29.889 9.65972 29.8694C9.7071 29.8498 9.75789 29.8397 9.80918 29.8398H19.1799C19.2312 29.8397 19.282 29.8498 19.3293 29.8694C19.3767 29.889 19.4198 29.9178 19.4561 29.9541C19.4923 29.9904 19.5211 30.0334 19.5407 30.0808C19.5603 30.1282 19.5704 30.179 19.5703 30.2303C19.5703 30.2816 19.5603 30.3323 19.5406 30.3797C19.521 30.4271 19.4923 30.4702 19.456 30.5064C19.4198 30.5427 19.3767 30.5714 19.3293 30.591C19.2819 30.6107 19.2312 30.6207 19.1799 30.6207Z" fill="#789E9F"/>
<path d="M46.4745 14.2219H35.5421C35.3262 14.2219 35.1516 14.0473 35.1516 13.8314C35.1516 13.6156 35.3262 13.441 35.5421 13.441H46.4745C46.6903 13.441 46.8649 13.6156 46.8649 13.8314C46.8649 14.0473 46.6903 14.2219 46.4745 14.2219Z" fill="#789E9F"/>
<path d="M46.4745 16.5646H35.5421C35.3262 16.5646 35.1516 16.3899 35.1516 16.1741C35.1516 15.9583 35.3262 15.7837 35.5421 15.7837H46.4745C46.6903 15.7837 46.8649 15.9583 46.8649 16.1741C46.8649 16.3899 46.6903 16.5646 46.4745 16.5646Z" fill="#789E9F"/>
<path d="M42.5701 18.9073H35.5421C35.3262 18.9073 35.1516 18.7327 35.1516 18.5169C35.1516 18.3011 35.3262 18.1264 35.5421 18.1264H42.5701C42.7859 18.1264 42.9605 18.3011 42.9605 18.5169C42.9605 18.7327 42.7859 18.9073 42.5701 18.9073Z" fill="#789E9F"/>
<path d="M40.2274 21.2499H35.5421C35.3262 21.2499 35.1516 21.0753 35.1516 20.8595C35.1516 20.6437 35.3262 20.4691 35.5421 20.4691H40.2274C40.4433 20.4691 40.6179 20.6437 40.6179 20.8595C40.6179 21.0753 40.4433 21.2499 40.2274 21.2499Z" fill="#789E9F"/>
<path d="M36.3229 23.5926H35.5421C35.3262 23.5926 35.1516 23.418 35.1516 23.2021C35.1516 22.9863 35.3262 22.8117 35.5421 22.8117H36.3229C36.5388 22.8117 36.7134 22.9863 36.7134 23.2021C36.7134 23.418 36.5388 23.5926 36.3229 23.5926Z" fill="#789E9F"/>
</svg>
