<svg width="40" height="40" viewBox="0 0 40 40" fill="none" xmlns="http://www.w3.org/2000/svg">
<path d="M16.7078 7.91669C16.0175 7.91669 15.4578 8.47634 15.4578 9.16669C15.4578 9.85704 16.0175 10.4167 16.7078 10.4167V7.91669ZM22.2328 10.4167C22.9231 10.4167 23.4828 9.85704 23.4828 9.16669C23.4828 8.47634 22.9231 7.91669 22.2328 7.91669V10.4167ZM17.4703 29.1667C17.4703 28.4764 16.9106 27.9167 16.2203 27.9167C15.53 27.9167 14.9703 28.4764 14.9703 29.1667H17.4703ZM23.9703 29.1667C23.9703 28.4764 23.4106 27.9167 22.7203 27.9167C22.03 27.9167 21.4703 28.4764 21.4703 29.1667H23.9703ZM19.4703 12.21L19.5071 10.9606C19.483 10.9599 19.459 10.9598 19.4348 10.9605L19.4703 12.21ZM27.5856 19.5967L28.831 19.4892C28.8288 19.465 28.8261 19.441 28.8226 19.417L27.5856 19.5967ZM28.5606 24.5967L27.3661 24.9652C27.4068 25.0969 27.4688 25.221 27.55 25.3324L28.5606 24.5967ZM28.9391 27.7834L30.0256 28.4017C30.0518 28.3554 30.0751 28.3075 30.0955 28.2584L28.9391 27.7834ZM26.6316 29.1617V30.4119L26.6475 30.4115L26.6316 29.1617ZM12.3057 29.1617L12.2899 30.4117H12.3057V29.1617ZM9.99819 27.7834L8.84236 28.2594C8.86248 28.3082 8.88568 28.3557 8.91181 28.4017L9.99819 27.7834ZM10.3703 24.6017L11.383 25.3344C11.4631 25.2239 11.5245 25.1007 11.5647 24.9702L10.3703 24.6017ZM11.3453 19.6017L10.1082 19.4227C10.1048 19.4465 10.102 19.4704 10.0999 19.4942L11.3453 19.6017ZM16.7078 10.4167H22.2328V7.91669H16.7078V10.4167ZM14.9703 29.1667C14.9703 31.668 16.9553 33.75 19.4703 33.75V31.25C18.3953 31.25 17.4703 30.3474 17.4703 29.1667H14.9703ZM19.4703 33.75C21.9853 33.75 23.9703 31.668 23.9703 29.1667H21.4703C21.4703 30.3474 20.5453 31.25 19.4703 31.25V33.75ZM19.4335 13.4595C22.897 13.5615 25.8295 16.201 26.3485 19.7764L28.8226 19.417C28.1356 14.6853 24.229 11.0997 19.5071 10.9606L19.4335 13.4595ZM26.3401 19.7042C26.4945 21.4907 26.8383 23.2549 27.3661 24.9652L29.755 24.2282C29.2798 22.688 28.9698 21.0989 28.831 19.4892L26.3401 19.7042ZM27.55 25.3324C27.9613 25.8974 28.0528 26.6514 27.783 27.3084L30.0955 28.2584C30.6931 26.8035 30.4966 25.1324 29.5711 23.861L27.55 25.3324ZM27.8528 27.165C27.5873 27.6317 27.1136 27.9055 26.616 27.9119L26.6475 30.4115C28.0533 30.3939 29.3315 29.6212 30.0256 28.4017L27.8528 27.165ZM26.6316 27.9117H12.3057V30.4117L26.6316 30.4119V27.9117ZM12.3215 27.9119C11.8238 27.9055 11.3501 27.6317 11.0846 27.165L8.91181 28.4017C9.60593 29.6212 10.884 30.394 12.2899 30.4117L12.3215 27.9119ZM11.154 27.3074C10.8841 26.652 10.9741 25.8995 11.383 25.3344L9.35761 23.869C8.43773 25.1404 8.24466 26.808 8.84236 28.2594L11.154 27.3074ZM11.5647 24.9702C12.0925 23.2599 12.4365 21.4957 12.5907 19.7092L10.0999 19.4942C9.96099 21.1039 9.65109 22.693 9.17588 24.2332L11.5647 24.9702ZM12.5824 19.7807C13.1002 16.2004 16.0379 13.5579 19.5058 13.4595L19.4348 10.9605C14.7068 11.0946 10.7935 14.6847 10.1082 19.4227L12.5824 19.7807Z" fill="#789E9F"/>
</svg>
