<svg width="50" height="50" viewBox="0 0 50 50" fill="none" xmlns="http://www.w3.org/2000/svg">
<g id="password-lock-svgrepo-com 1" clip-path="url(#clip0_112_567)">
<g id="Layer 2">
<g id="Layer 7">
<g id="Group">
<path id="Vector" d="M40.6252 18.75H36.4585V13.5417C36.4585 10.5027 35.2513 7.58825 33.1024 5.4394C30.9536 3.29054 28.0391 2.08333 25.0002 2.08333H22.9168C19.8779 2.08333 16.9634 3.29054 14.8146 5.4394C12.6657 7.58825 11.4585 10.5027 11.4585 13.5417V18.75H7.29183C6.7393 18.75 6.20939 18.9695 5.81869 19.3602C5.42799 19.7509 5.2085 20.2808 5.2085 20.8333V45.8333C5.2085 46.3859 5.42799 46.9158 5.81869 47.3065C6.20939 47.6972 6.7393 47.9167 7.29183 47.9167H40.6252C41.1777 47.9167 41.7076 47.6972 42.0983 47.3065C42.489 46.9158 42.7085 46.3859 42.7085 45.8333V20.8333C42.7085 20.2808 42.489 19.7509 42.0983 19.3602C41.7076 18.9695 41.1777 18.75 40.6252 18.75ZM15.6252 13.5417C15.6252 11.6078 16.3934 9.75313 17.7608 8.38567C19.1283 7.01822 20.983 6.24999 22.9168 6.24999H25.0002C26.934 6.24999 28.7887 7.01822 30.1561 8.38567C31.5236 9.75313 32.2918 11.6078 32.2918 13.5417V18.75H15.6252V13.5417ZM38.5418 43.75H9.37516V22.9167H38.5418V43.75Z" fill="#789E9F"/>
<path id="Vector_2" d="M15.625 36.4583C17.3509 36.4583 18.75 35.0592 18.75 33.3333C18.75 31.6074 17.3509 30.2083 15.625 30.2083C13.8991 30.2083 12.5 31.6074 12.5 33.3333C12.5 35.0592 13.8991 36.4583 15.625 36.4583Z" fill="#789E9F"/>
<path id="Vector_3" d="M23.9585 36.4583C25.6844 36.4583 27.0835 35.0592 27.0835 33.3333C27.0835 31.6074 25.6844 30.2083 23.9585 30.2083C22.2326 30.2083 20.8335 31.6074 20.8335 33.3333C20.8335 35.0592 22.2326 36.4583 23.9585 36.4583Z" fill="#789E9F"/>
<path id="Vector_4" d="M32.292 36.4583C34.0179 36.4583 35.417 35.0592 35.417 33.3333C35.417 31.6074 34.0179 30.2083 32.292 30.2083C30.5661 30.2083 29.167 31.6074 29.167 33.3333C29.167 35.0592 30.5661 36.4583 32.292 36.4583Z" fill="#789E9F"/>
</g>
</g>
</g>
</g>
<defs>
<clipPath id="clip0_112_567">
<rect width="50" height="50" fill="white"/>
</clipPath>
</defs>
</svg>
