<svg width="50" height="50" viewBox="0 0 50 50" fill="none" xmlns="http://www.w3.org/2000/svg">
<g id="employee-id-svgrepo-com 1">
<g id="Group">
<path id="Vector" d="M25.0009 40.1879C30.3232 40.1879 33.9822 39.4966 34.038 38.8323C34.2698 36.0568 30.6681 34.6075 29.2157 34.0634C28.4368 33.772 27.3028 32.9218 27.3028 32.3932C27.3028 32.0429 27.3028 31.605 27.3028 31.0051C27.7531 30.5052 28.0933 29.4883 28.2972 28.3374C28.7715 28.1677 29.042 27.8956 29.3807 26.7114C29.7411 25.4487 28.8389 25.4907 28.8389 25.4907C29.5682 23.0771 28.6087 20.8087 27.0005 20.9745C25.8914 19.0353 22.1766 21.4179 21.0132 21.2519C21.0132 21.9178 21.29 22.416 21.29 22.416C20.8854 23.1857 21.0412 24.7172 21.1544 25.4907C21.0892 25.4907 20.2739 25.4984 20.6204 26.7114C20.9575 27.8956 21.2288 28.1677 21.7032 28.3374C21.9062 29.4884 22.2472 30.5052 22.6991 31.0051C22.6991 31.605 22.6991 32.0429 22.6991 32.3932C22.6991 32.9218 21.493 33.8139 20.7839 34.0634C19.3237 34.5772 15.7306 36.0568 15.9624 38.8323C16.0181 39.4965 19.677 40.1879 25.0009 40.1879Z" fill="#789E9F"/>
<path id="Vector_2" d="M39.5485 5.55557H32.1429V7.14288C32.1429 10.2059 29.6503 12.6984 26.5874 12.6984H23.4127C20.3497 12.6984 17.8572 10.2059 17.8572 7.14288V5.55557H10.4515C7.96675 5.55557 5.95239 7.56993 5.95239 10.0547V45.5009C5.95239 47.9856 7.96675 50 10.4515 50H39.5484C42.0333 50 44.0476 47.9856 44.0476 45.5009V10.0547C44.0477 7.56993 42.0334 5.55557 39.5485 5.55557ZM39.2858 45.2381H10.7143V14.6825H39.2858V45.2381Z" fill="#789E9F"/>
<path id="Vector_3" d="M23.4128 11.1111H26.5875C28.7754 11.1111 30.5557 9.33086 30.5557 7.14287V3.96826C30.5557 1.78027 28.7754 0 26.5875 0H23.4128C21.2248 0 19.4446 1.78027 19.4446 3.96826V7.14287C19.4446 9.33076 21.2249 11.1111 23.4128 11.1111ZM22.6192 3.96826C22.6192 3.52959 22.9741 3.17461 23.4128 3.17461H26.5875C27.0261 3.17461 27.3811 3.52959 27.3811 3.96826V5.55557C27.3811 5.99424 27.0261 6.34922 26.5875 6.34922H23.4128C22.9741 6.34922 22.6192 5.99424 22.6192 5.55557V3.96826Z" fill="#789E9F"/>
</g>
</g>
</svg>
