<svg width="80" height="80" viewBox="0 0 80 80" fill="none" xmlns="http://www.w3.org/2000/svg">
<g id="avatar-people-user-svgrepo-com 1">
<path id="Vector" d="M39.9999 41.075C37.7199 41.0775 35.4905 40.4036 33.5936 39.1388C31.6966 37.8739 30.2175 36.0748 29.3433 33.9691C28.4691 31.8634 28.2391 29.5457 28.6823 27.3092C29.1256 25.0728 30.2223 23.0181 31.8336 21.405C33.4449 19.792 35.4984 18.6931 37.7344 18.2474C39.9704 17.8017 42.2883 18.0292 44.3949 18.9011C46.5016 19.773 48.3023 21.2502 49.5692 23.1457C50.8362 25.0413 51.5124 27.27 51.5124 29.55C51.5091 32.6034 50.2955 35.5311 48.1376 37.6913C45.9796 39.8516 43.0533 41.0684 39.9999 41.075ZM39.9999 21.7875C38.4611 21.785 36.9562 22.2392 35.6757 23.0926C34.3951 23.946 33.3967 25.1601 32.8066 26.5813C32.2166 28.0026 32.0616 29.5669 32.3612 31.0762C32.6608 32.5856 33.4016 33.9721 34.4897 35.0602C35.5778 36.1483 36.9643 36.8891 38.4737 37.1887C39.983 37.4883 41.5473 37.3333 42.9685 36.7433C44.3898 36.1532 45.6039 35.1548 46.4573 33.8742C47.3107 32.5937 47.7649 31.0888 47.7624 29.55C47.7624 27.4912 46.9446 25.5168 45.4888 24.0611C44.0331 22.6053 42.0587 21.7875 39.9999 21.7875Z" fill="#789E9F"/>
<path id="Vector_2" d="M40 70.8C33.1 70.7935 26.4015 68.4741 20.975 64.2125C20.7722 64.0518 20.6045 63.8513 20.482 63.6235C20.3595 63.3957 20.2848 63.1452 20.2625 62.8875C20.2625 62.6875 20.2625 62.5 20.2625 62.3C20.2625 59.7064 20.7733 57.1382 21.7658 54.742C22.7584 52.3458 24.2131 50.1686 26.0471 48.3346C27.8811 46.5007 30.0583 45.0459 32.4545 44.0534C34.8506 43.0608 37.4188 42.55 40.0125 42.55C42.6061 42.55 45.1743 43.0608 47.5704 44.0534C49.9666 45.0459 52.1439 46.5007 53.9778 48.3346C55.8118 50.1686 57.2665 52.3458 58.2591 54.742C59.2516 57.1382 59.7625 59.7064 59.7625 62.3C59.7625 62.5 59.7625 62.6875 59.7625 62.8875C59.7402 63.1452 59.6654 63.3957 59.5429 63.6235C59.4204 63.8513 59.2527 64.0518 59.05 64.2125C53.6167 68.4794 46.9084 70.7991 40 70.8ZM24.0125 61.8125C28.6488 65.2144 34.2494 67.0487 40 67.0487C45.7505 67.0487 51.3511 65.2144 55.9875 61.8125C55.8241 57.6817 54.0682 53.7745 51.0878 50.9097C48.1075 48.0449 44.1339 46.4448 40 46.4448C35.866 46.4448 31.8924 48.0449 28.9121 50.9097C25.9317 53.7745 24.1758 57.6817 24.0125 61.8125Z" fill="#789E9F"/>
<path id="Vector_3" d="M40 70.8C32.7128 70.8038 25.6602 68.2247 20.0945 63.5209C14.5289 58.8171 10.8105 52.2929 9.59975 45.1071C8.38897 37.9212 9.76417 30.5388 13.4811 24.2709C17.1981 18.003 23.0162 13.2553 29.9022 10.871C36.7882 8.4867 44.2965 8.62008 51.0935 11.2475C57.8905 13.8749 63.5363 18.8262 67.0283 25.2222C70.5203 31.6181 71.6324 39.0447 70.1671 46.183C68.7019 53.3213 64.7541 59.7093 59.025 64.2125C53.5984 68.4741 46.8999 70.7935 40 70.8ZM40 12.95C34.3769 12.9502 28.8938 14.7037 24.314 17.9662C19.7342 21.2287 16.2855 25.838 14.448 31.1523C12.6105 36.4667 12.4757 42.2217 14.0623 47.6163C15.6489 53.0109 18.8779 57.7766 23.3 61.25C27.2894 64.3809 32.0787 66.3273 37.1212 66.867C42.1638 67.4067 47.2565 66.518 51.8182 64.3023C56.3799 62.0866 60.2269 58.6332 62.9202 54.3361C65.6134 50.039 67.0444 45.0713 67.0499 40C67.04 32.8289 64.1869 25.9544 59.1162 20.8837C54.0455 15.813 47.171 12.9599 40 12.95Z" fill="#789E9F"/>
</g>
</svg>
