<svg width="50" height="51" viewBox="0 0 50 51" fill="none" xmlns="http://www.w3.org/2000/svg">
<g clip-path="url(#clip0_83_594)">
<path d="M49.8428 19.9457L49.3763 18.2048C49.0608 17.0265 48.3082 16.0425 47.2569 15.4337C46.2066 14.8251 44.9804 14.6628 43.8083 14.9774L42.1937 15.4097C41.3958 14.0697 40.4459 12.8315 39.3601 11.715L40.1953 10.2688C40.8005 9.22027 40.9604 7.99576 40.644 6.82066C40.3269 5.64546 39.5724 4.66314 38.5194 4.05494L36.9582 3.15396C35.9025 2.54468 34.6745 2.38042 33.5007 2.69322C32.3269 3.00601 31.3467 3.75718 30.739 4.80933L29.9046 6.25552C28.3948 5.87359 26.8478 5.67046 25.2884 5.64957L24.8548 4.03453C24.2061 1.61431 21.7029 0.177007 19.2762 0.826616L17.5354 1.29263C15.1078 1.94361 13.6603 4.44097 14.3081 6.86099L14.7408 8.47554C13.4009 9.2732 12.163 10.2226 11.047 11.3089L9.60039 10.4736C7.42959 9.22203 4.64385 9.97378 3.38642 12.15L2.48535 13.7103C1.87578 14.7669 1.71142 15.9949 2.02422 17.1683C2.33701 18.3418 3.08877 19.3227 4.14082 19.93L5.5874 20.7649C5.20439 22.2742 5.00185 23.8213 4.98047 25.3811L3.36592 25.8139C2.19658 26.127 1.21816 26.8806 0.610349 27.935C0.00351346 28.9901 -0.157424 30.2182 0.157224 31.3928L0.623728 33.1336C0.939158 34.312 1.69179 35.2955 2.74306 35.9043C3.79424 36.5133 5.01875 36.675 6.1917 36.3604L7.80713 35.9281C8.6042 37.2676 9.5541 38.5063 10.6399 39.6225L9.80469 41.069C8.55176 43.2378 9.30351 46.0253 11.4806 47.2831L13.0418 48.184C14.0975 48.7936 15.3255 48.9576 16.4993 48.6448C17.6731 48.3325 18.6532 47.5807 19.261 46.5286L20.0954 45.0824C21.6051 45.4645 23.1521 45.6675 24.7125 45.6888L25.1452 47.3034C25.4589 48.4727 26.2115 49.4516 27.2663 50.0585C27.9692 50.4628 28.7476 50.6689 29.5366 50.6689C29.9329 50.6689 30.3311 50.617 30.7237 50.5116L32.4646 50.0451C33.6429 49.7296 34.6265 48.9775 35.2352 47.9263C35.8438 46.8759 36.0064 45.651 35.6919 44.4776L35.2592 42.8626C36.6001 42.0641 37.8379 41.1143 38.9539 40.0293L40.4006 40.8645C42.5705 42.1166 45.3571 41.3657 46.6145 39.1878L47.5156 37.6274C48.7712 35.4504 48.0292 32.6607 45.8602 31.4082L44.4126 30.5729C44.7956 29.0637 44.9981 27.5162 45.0195 25.9568L46.6341 25.524C47.8044 25.2109 48.7827 24.4573 49.3896 23.4029C49.9966 22.3478 50.1574 21.1203 49.8428 19.9457ZM47.8124 22.4949C47.448 23.1277 46.8625 23.579 46.1632 23.7666L43.8715 24.3805C43.4663 24.4888 43.1882 24.8602 43.1971 25.2793C43.2389 27.1355 42.9962 28.978 42.4773 30.7557C42.3601 31.1582 42.5324 31.5891 42.8959 31.7988L44.9503 32.9846C46.2503 33.735 46.6937 35.41 45.9393 36.7176L45.0382 38.278C44.2829 39.586 42.6114 40.0388 41.3105 39.2883L39.2561 38.1025C38.8945 37.895 38.4333 37.9573 38.1437 38.262C36.8649 39.5993 35.3908 40.73 33.762 41.6226C33.3941 41.8245 33.212 42.2509 33.3204 42.656L33.9344 44.9486C34.1228 45.6515 34.025 46.385 33.6607 47.0141C33.2955 47.6455 32.7037 48.0973 31.9937 48.2876L30.2529 48.7541C29.5456 48.9432 28.8081 48.8469 28.1745 48.4811C27.5418 48.1169 27.0904 47.5317 26.9029 46.8323L26.2889 44.5402C26.1822 44.1418 25.8215 43.8659 25.4101 43.8659C25.4038 43.8659 25.3968 43.8659 25.3896 43.8662C23.536 43.9012 21.6904 43.665 19.9133 43.1465C19.5099 43.0292 19.0798 43.202 18.8701 43.565L17.6848 45.6185C17.3214 46.249 16.734 46.6991 16.0312 46.8861C15.3238 47.0745 14.5881 46.975 13.9519 46.6075L12.3906 45.7069C11.0826 44.9512 10.6303 43.2789 11.3812 41.9788L12.5665 39.9253C12.7762 39.5623 12.7104 39.103 12.4074 38.8128C11.0692 37.5324 9.93886 36.0578 9.04677 34.4303C8.84502 34.0625 8.41767 33.8806 8.01338 33.9886L5.7208 34.6028C5.01787 34.7906 4.28398 34.6939 3.65478 34.3294C3.02392 33.9639 2.57158 33.372 2.38144 32.6626L1.91494 30.9217C1.72568 30.2158 1.82256 29.4773 2.18769 28.843C2.55205 28.2102 3.1376 27.7588 3.83691 27.5713L6.12861 26.9574C6.53379 26.849 6.81191 26.4775 6.80303 26.0583C6.76123 24.2024 7.00381 22.3599 7.52275 20.5828C7.64004 20.1801 7.46767 19.7492 7.1042 19.5394L5.05068 18.3536C4.4207 17.9897 3.97012 17.4023 3.78262 16.7C3.59512 15.9953 3.69375 15.2564 4.06162 14.6202L4.96269 13.0598C5.71797 11.7523 7.39033 11.2982 8.69033 12.05L10.7438 13.2359C11.1063 13.4442 11.5649 13.3806 11.8563 13.0768C13.1368 11.7376 14.611 10.6069 16.2389 9.71519C16.6067 9.51402 16.789 9.08658 16.6806 8.6813L16.0656 6.3897C15.6773 4.93951 16.5481 3.44126 18.0063 3.05025L19.7471 2.58423C21.2079 2.19712 22.7088 3.05552 23.0971 4.50572L23.712 6.79839C23.8187 7.19644 24.1803 7.47232 24.5908 7.47232C24.5971 7.47232 24.6042 7.47232 24.6112 7.47193C26.4692 7.43511 28.3096 7.67183 30.0867 8.19126C30.491 8.30943 30.9202 8.1358 31.13 7.77281L32.3153 5.71919C32.6788 5.08921 33.2661 4.63921 33.969 4.45171C34.6737 4.26451 35.4112 4.36275 36.0483 4.73033L37.6096 5.6313C38.2432 5.99664 38.6963 6.58746 38.8864 7.294C39.0766 7.99859 38.9815 8.73218 38.6189 9.35904L37.4336 11.4127C37.2239 11.7759 37.2896 12.2354 37.5927 12.5252C38.931 13.805 40.0621 15.2798 40.9533 16.9076C41.155 17.2754 41.5824 17.4559 41.9867 17.3492L44.2793 16.7351C44.9821 16.5481 45.7152 16.6436 46.3453 17.0085C46.9762 17.374 47.4285 17.9663 47.6186 18.6757L48.0852 20.4165C48.2744 21.1225 48.1776 21.8609 47.8124 22.4949Z" fill="#789E9F"/>
<path d="M24.9996 15.6606C19.4806 15.6606 14.9905 20.1506 14.9905 25.6696C14.9905 31.1886 19.4806 35.6787 24.9996 35.6787C30.5187 35.6787 35.0087 31.1886 35.0087 25.6696C35.0087 20.1506 30.5187 15.6606 24.9996 15.6606ZM24.9996 33.8589C20.4838 33.8589 16.8104 30.1849 16.8104 25.6696C16.8104 21.1543 20.4838 17.4804 24.9996 17.4804C29.5154 17.4804 33.1889 21.1543 33.1889 25.6696C33.1889 30.185 29.5153 33.8589 24.9996 33.8589Z" fill="#789E9F"/>
</g>
<defs>
<clipPath id="clip0_83_594">
<rect width="50" height="50" fill="white" transform="translate(0 0.669922)"/>
</clipPath>
</defs>
</svg>
