<svg width="30" height="30" viewBox="0 0 30 30" fill="none" xmlns="http://www.w3.org/2000/svg">
<g id="writer-svgrepo-com 1" clip-path="url(#clip0_76_12160)">
<g id="Group">
<path id="Vector" d="M28.3983 10.9269H26.2868V9.82948C26.2868 8.92923 25.5545 8.19688 24.6542 8.19688H22.4003V1.40005C22.4003 1.17909 22.2211 1 22.0002 1H7.99985C7.77895 1 7.5998 1.17909 7.5998 1.40005V8.19681H5.31319C4.41294 8.19681 3.68059 8.92917 3.68059 9.82941V10.9269H1.60173C1.38084 10.9269 1.20168 11.106 1.20168 11.3269V15.6174C1.20168 15.8383 1.38084 16.0174 1.60173 16.0174H3.68565V16.4519C3.68565 17.1208 3.43102 17.7554 2.96857 18.2388C2.36309 18.8719 2.02965 19.7029 2.02965 20.5789V28.157C2.02965 29.1001 2.79694 29.8673 3.73999 29.8673H3.93215V30.5999C3.93215 30.8208 4.1113 30.9999 4.3322 30.9999C4.55309 30.9999 4.73225 30.8208 4.73225 30.5999V29.8673H25.1347V30.5999C25.1347 30.8208 25.3139 30.9999 25.5348 30.9999C25.7557 30.9999 25.9348 30.8208 25.9348 30.5999V29.8673H26.2599C27.203 29.8673 27.9702 29.1 27.9702 28.157V20.5789C27.9702 19.7029 27.6368 18.8719 27.0313 18.2389C26.5689 17.7555 26.3143 17.1208 26.3143 16.452V16.0175H28.3982C28.6191 16.0175 28.7983 15.8383 28.7983 15.6175V11.327C28.7983 11.1061 28.6192 10.9269 28.3983 10.9269ZM4.48575 16.3982V14.6626H25.5143V16.3982H4.48575ZM20.3028 17.1983C19.6526 17.8428 17.752 18.5151 15 18.5151C12.2481 18.5151 10.3475 17.8428 9.69725 17.1983H20.3028ZM21.6002 1.8001V12.3311H8.3999V1.8001H21.6002ZM4.48068 9.82948C4.48068 9.37042 4.8542 8.99698 5.31319 8.99698H7.59973V12.3311H6.73249C6.5116 12.3311 6.33244 12.5101 6.33244 12.7311C6.33244 12.9521 6.5116 13.1311 6.73249 13.1311H23.2678C23.4887 13.1311 23.6679 12.9521 23.6679 12.7311C23.6679 12.5101 23.4887 12.3311 23.2678 12.3311H22.4002V8.99698H24.6541C25.1132 8.99698 25.4866 9.37049 25.4866 9.82948V13.8574H4.48068V9.82948ZM2.00178 15.2174V11.727H3.68565V15.2174H2.00178ZM26.4532 18.7919C26.9156 19.2753 27.1702 19.9099 27.1702 20.5789V28.157C27.1702 28.6589 26.7619 29.0672 26.2599 29.0672H3.74006C3.23813 29.0672 2.82982 28.6588 2.82982 28.157V20.5789C2.82982 19.9099 3.08445 19.2753 3.54684 18.7919C3.97682 18.3424 4.26879 17.7927 4.40241 17.1983H8.73994C9.28687 18.5687 12.222 19.3152 15.0001 19.3152C17.7782 19.3152 20.7133 18.5687 21.2603 17.1983H25.5978C25.7312 17.7927 26.0232 18.3424 26.4532 18.7919ZM27.9982 15.2174H26.3144V11.727H27.9982V15.2174Z" fill="#789E9F"/>
<path id="Vector_2" d="M6.34244 21.4908C7.04033 21.4908 7.60806 20.923 7.60806 20.2251C7.60806 19.5272 7.04026 18.9595 6.34244 18.9595C5.64462 18.9595 5.07682 19.5273 5.07682 20.2251C5.07675 20.923 5.64456 21.4908 6.34244 21.4908ZM6.34244 19.7595C6.59921 19.7595 6.80797 19.9683 6.80797 20.225C6.80797 20.4818 6.59914 20.6906 6.34244 20.6906C6.08574 20.6906 5.87692 20.4818 5.87692 20.225C5.87685 19.9684 6.08568 19.7595 6.34244 19.7595Z" fill="#789E9F"/>
<path id="Vector_3" d="M9.15299 21.4908C9.85087 21.4908 10.4186 20.923 10.4186 20.2251C10.4186 19.5272 9.85081 18.9595 9.15299 18.9595C8.45517 18.9595 7.88737 19.5273 7.88737 20.2251C7.88737 20.923 8.4551 21.4908 9.15299 21.4908ZM9.15299 19.7595C9.40975 19.7595 9.61851 19.9683 9.61851 20.225C9.61851 20.4818 9.40969 20.6906 9.15299 20.6906C8.89629 20.6906 8.68747 20.4818 8.68747 20.225C8.68747 19.9684 8.89622 19.7595 9.15299 19.7595Z" fill="#789E9F"/>
<path id="Vector_4" d="M11.9635 21.4908C12.6615 21.4908 13.2292 20.923 13.2292 20.2251C13.2292 19.5272 12.6614 18.9595 11.9635 18.9595C11.2656 18.9595 10.6979 19.5273 10.6979 20.2251C10.6979 20.923 11.2657 21.4908 11.9635 21.4908ZM11.9635 19.7595C12.2203 19.7595 12.4291 19.9683 12.4291 20.225C12.4291 20.4818 12.2202 20.6906 11.9635 20.6906C11.7068 20.6906 11.498 20.4818 11.498 20.225C11.498 19.9684 11.7068 19.7595 11.9635 19.7595Z" fill="#789E9F"/>
<path id="Vector_5" d="M14.7742 21.4908C15.4721 21.4908 16.0398 20.923 16.0398 20.2251C16.0398 19.5272 15.472 18.9595 14.7742 18.9595C14.0764 18.9595 13.5086 19.5273 13.5086 20.2251C13.5085 20.923 14.0763 21.4908 14.7742 21.4908ZM14.7742 19.7595C15.031 19.7595 15.2397 19.9683 15.2397 20.225C15.2397 20.4818 15.0309 20.6906 14.7742 20.6906C14.5175 20.6906 14.3087 20.4818 14.3087 20.225C14.3086 19.9684 14.5174 19.7595 14.7742 19.7595Z" fill="#789E9F"/>
<path id="Vector_6" d="M17.5848 22.4908C18.2826 22.4908 18.8504 21.923 18.8504 21.2251C18.8504 20.5272 18.2826 19.9595 17.5848 19.9595C16.8869 19.9595 16.3191 20.5273 16.3191 21.2251C16.3191 21.923 16.8869 22.4908 17.5848 22.4908ZM17.5848 20.7595C17.8415 20.7595 18.0503 20.9683 18.0503 21.225C18.0503 21.4818 17.8415 21.6906 17.5848 21.6906C17.3281 21.6906 17.1192 21.4818 17.1192 21.225C17.1192 20.9684 17.328 20.7595 17.5848 20.7595Z" fill="#789E9F"/>
<path id="Vector_7" d="M20.3953 22.4908C21.0932 22.4908 21.661 21.923 21.661 21.2251C21.661 20.5272 21.0932 19.9595 20.3953 19.9595C19.6974 19.9595 19.1297 20.5273 19.1297 21.2251C19.1297 21.923 19.6975 22.4908 20.3953 22.4908ZM20.3953 20.7595C20.6521 20.7595 20.8609 20.9683 20.8609 21.225C20.8609 21.4818 20.652 21.6906 20.3953 21.6906C20.1386 21.6906 19.9298 21.4818 19.9298 21.225C19.9298 20.9684 20.1386 20.7595 20.3953 20.7595Z" fill="#789E9F"/>
<path id="Vector_8" d="M23.206 22.4908C23.9039 22.4908 24.4716 21.923 24.4716 21.2251C24.4716 20.5272 23.9038 19.9595 23.206 19.9595C22.508 19.9595 21.9403 20.5273 21.9403 21.2251C21.9402 21.923 22.508 22.4908 23.206 22.4908ZM23.206 20.7595C23.4627 20.7595 23.6715 20.9683 23.6715 21.225C23.6715 21.4818 23.4627 21.6906 23.206 21.6906C22.9493 21.6906 22.7404 21.4818 22.7404 21.225C22.7403 20.9684 22.9492 20.7595 23.206 20.7595Z" fill="#789E9F"/>
<path id="Vector_9" d="M6.34244 24.7102C5.64456 24.7102 5.07682 25.278 5.07682 25.9758C5.07682 26.6737 5.64462 27.2415 6.34244 27.2415C7.04026 27.2415 7.60806 26.6737 7.60806 25.9758C7.60806 25.278 7.04033 24.7102 6.34244 24.7102ZM6.34244 26.4414C6.08568 26.4414 5.87692 26.2326 5.87692 25.9758C5.87692 25.7191 6.08574 25.5103 6.34244 25.5103C6.59914 25.5103 6.80797 25.7191 6.80797 25.9758C6.80797 26.2326 6.59914 26.4414 6.34244 26.4414Z" fill="#789E9F"/>
<path id="Vector_10" d="M9.15299 24.7102C8.4551 24.7102 7.88737 25.278 7.88737 25.9758C7.88737 26.6737 8.45517 27.2415 9.15299 27.2415C9.85081 27.2415 10.4186 26.6737 10.4186 25.9758C10.4186 25.278 9.85087 24.7102 9.15299 24.7102ZM9.15299 26.4414C8.89622 26.4414 8.68747 26.2326 8.68747 25.9758C8.68747 25.7191 8.89629 25.5103 9.15299 25.5103C9.40969 25.5103 9.61851 25.7191 9.61851 25.9758C9.61851 26.2326 9.40975 26.4414 9.15299 26.4414Z" fill="#789E9F"/>
<path id="Vector_11" d="M17.5848 25.666H11.9635C11.2656 25.666 10.6979 26.2561 10.6979 26.9662C10.6979 27.6763 11.2657 28.2663 11.9635 28.2663C11.9638 28.2663 11.9641 28.2663 11.9643 28.2663L17.5848 28.2429C18.2826 28.2429 18.8504 27.6577 18.8504 26.9538C18.8504 26.2437 18.2826 25.666 17.5848 25.666ZM17.584 27.4304L11.963 27.4414C11.7109 27.4411 11.4979 27.2179 11.4979 26.9538C11.4979 26.6895 11.7111 26.4661 11.9635 26.4661H17.5847C17.8371 26.4661 18.0502 26.6895 18.0502 26.9538C18.0503 27.2121 17.8371 27.4304 17.584 27.4304Z" fill="#789E9F"/>
<path id="Vector_12" d="M20.3953 25.7102C19.6974 25.7102 19.1297 26.278 19.1297 26.9758C19.1297 27.6737 19.6975 28.2415 20.3953 28.2415C21.0932 28.2415 21.661 27.6737 21.661 26.9758C21.661 26.278 21.0932 25.7102 20.3953 25.7102ZM20.3953 27.4414C20.1385 27.4414 19.9298 27.2326 19.9298 26.9758C19.9298 26.7191 20.1386 26.5103 20.3953 26.5103C20.652 26.5103 20.8609 26.7191 20.8609 26.9758C20.8609 27.2326 20.6521 27.4414 20.3953 27.4414Z" fill="#789E9F"/>
<path id="Vector_13" d="M23.206 25.7102C22.508 25.7102 21.9403 26.278 21.9403 26.9758C21.9403 27.6737 22.5081 28.2415 23.206 28.2415C23.9039 28.2415 24.4716 27.6737 24.4716 26.9758C24.4716 26.278 23.9038 25.7102 23.206 25.7102ZM23.206 27.4414C22.9492 27.4414 22.7404 27.2326 22.7404 26.9758C22.7404 26.7191 22.9493 26.5103 23.206 26.5103C23.4627 26.5103 23.6715 26.7191 23.6715 26.9758C23.6715 27.2326 23.4627 27.4414 23.206 27.4414Z" fill="#789E9F"/>
<path id="Vector_14" d="M6.40378 23.0963C6.40378 22.3984 5.83598 21.8306 5.13816 21.8306C4.44021 21.8306 3.87247 22.3984 3.87247 23.0963C3.87247 23.7941 4.44028 24.3619 5.13816 24.3619C5.83598 24.3619 6.40378 23.7941 6.40378 23.0963ZM4.67251 23.0963C4.67251 22.8395 4.8814 22.6307 5.1381 22.6307C5.39479 22.6307 5.60362 22.8395 5.60362 23.0963C5.60362 23.353 5.39479 23.5618 5.1381 23.5618C4.8814 23.5618 4.67251 23.353 4.67251 23.0963Z" fill="#789E9F"/>
<path id="Vector_15" d="M7.94871 21.8306C7.25083 21.8306 6.68309 22.3984 6.68309 23.0963C6.68309 23.7941 7.25089 24.3619 7.94871 24.3619C8.64653 24.3619 9.21433 23.7941 9.21433 23.0963C9.21433 22.3984 8.64653 21.8306 7.94871 21.8306ZM7.94871 23.5618C7.69195 23.5618 7.48319 23.353 7.48319 23.0963C7.48319 22.8396 7.69201 22.6307 7.94871 22.6307C8.20541 22.6307 8.41423 22.8396 8.41423 23.0963C8.41423 23.353 8.20541 23.5618 7.94871 23.5618Z" fill="#789E9F"/>
<path id="Vector_16" d="M10.7593 21.8306C10.0614 21.8306 9.49363 22.3984 9.49363 23.0963C9.49363 23.7941 10.0614 24.3619 10.7593 24.3619C11.4571 24.3619 12.0249 23.7941 12.0249 23.0963C12.0249 22.3984 11.4571 21.8306 10.7593 21.8306ZM10.7593 23.5618C10.5025 23.5618 10.2937 23.353 10.2937 23.0963C10.2937 22.8396 10.5026 22.6307 10.7593 22.6307C11.0159 22.6307 11.2248 22.8396 11.2248 23.0963C11.2248 23.353 11.0159 23.5618 10.7593 23.5618Z" fill="#789E9F"/>
<path id="Vector_17" d="M13.5698 21.8306C12.8719 21.8306 12.3042 22.3984 12.3042 23.0963C12.3042 23.7941 12.872 24.3619 13.5698 24.3619C14.2678 24.3619 14.8355 23.7941 14.8355 23.0963C14.8356 22.3984 14.2678 21.8306 13.5698 21.8306ZM13.5698 23.5618C13.313 23.5618 13.1043 23.353 13.1043 23.0963C13.1043 22.8396 13.3131 22.6307 13.5698 22.6307C13.8265 22.6307 14.0354 22.8396 14.0354 23.0963C14.0355 23.353 13.8266 23.5618 13.5698 23.5618Z" fill="#789E9F"/>
<path id="Vector_18" d="M16.3805 22.8306C15.6825 22.8306 15.1148 23.3984 15.1148 24.0963C15.1148 24.7941 15.6826 25.3619 16.3805 25.3619C17.0784 25.3619 17.6461 24.7941 17.6461 24.0963C17.6461 23.3984 17.0783 22.8306 16.3805 22.8306ZM16.3805 24.5618C16.1237 24.5618 15.9149 24.353 15.9149 24.0963C15.9149 23.8396 16.1238 23.6307 16.3805 23.6307C16.6372 23.6307 16.846 23.8396 16.846 24.0963C16.846 24.353 16.6372 24.5618 16.3805 24.5618Z" fill="#789E9F"/>
<path id="Vector_19" d="M19.191 22.8306C18.4931 22.8306 17.9254 23.3984 17.9254 24.0963C17.9254 24.7941 18.4932 25.3619 19.191 25.3619C19.8888 25.3619 20.4566 24.7941 20.4566 24.0963C20.4566 23.3984 19.8889 22.8306 19.191 22.8306ZM19.191 24.5618C18.9342 24.5618 18.7255 24.353 18.7255 24.0963C18.7255 23.8396 18.9343 23.6307 19.191 23.6307C19.4477 23.6307 19.6565 23.8396 19.6565 24.0963C19.6565 24.353 19.4477 24.5618 19.191 24.5618Z" fill="#789E9F"/>
<path id="Vector_20" d="M22.0442 22.8306C21.3463 22.8306 20.7785 23.3984 20.7785 24.0963C20.7785 24.7941 21.3463 25.3619 22.0442 25.3619C22.7421 25.3619 23.3099 24.7941 23.3099 24.0963C23.3099 23.3984 22.7421 22.8306 22.0442 22.8306ZM22.0442 24.5618C21.7875 24.5618 21.5786 24.353 21.5786 24.0963C21.5786 23.8396 21.7875 23.6307 22.0442 23.6307C22.3009 23.6307 22.5098 23.8396 22.5098 24.0963C22.5098 24.353 22.3009 24.5618 22.0442 24.5618Z" fill="#789E9F"/>
<path id="Vector_21" d="M24.8619 22.8306C24.164 22.8306 23.5963 23.3984 23.5963 24.0963C23.5963 24.7941 24.1641 25.3619 24.8619 25.3619C25.5597 25.3619 26.1275 24.7941 26.1275 24.0963C26.1275 23.3984 25.5597 22.8306 24.8619 22.8306ZM24.8619 24.5618C24.6051 24.5618 24.3964 24.353 24.3964 24.0963C24.3964 23.8396 24.6052 23.6307 24.8619 23.6307C25.1186 23.6307 25.3274 23.8396 25.3274 24.0963C25.3274 24.353 25.1186 24.5618 24.8619 24.5618Z" fill="#789E9F"/>
<path id="Vector_22" d="M17.4005 2.79663H12.4665V3.59673H17.4005V2.79663Z" fill="#789E9F"/>
<path id="Vector_23" d="M20.4675 5.26343H17.4005V6.06353H20.4675V5.26343Z" fill="#789E9F"/>
<path id="Vector_24" d="M16.0003 4.26343H12.9333V5.06353H16.0003V4.26343Z" fill="#789E9F"/>
<path id="Vector_25" d="M11.5331 4.26343H10.1996V5.06353H11.5331V4.26343Z" fill="#789E9F"/>
<path id="Vector_26" d="M20.4675 6.99707H15.4002V7.79717H20.4675V6.99707Z" fill="#789E9F"/>
<path id="Vector_27" d="M14.3334 5.99707H9.46616V6.79717H14.3334V5.99707Z" fill="#789E9F"/>
<path id="Vector_28" d="M20.4675 8.66382H17.4005V9.46392H20.4675V8.66382Z" fill="#789E9F"/>
<path id="Vector_29" d="M16.0003 7.66382H12.7999V8.46392H16.0003V7.66382Z" fill="#789E9F"/>
<path id="Vector_30" d="M11.3997 7.66382H9.46616V8.46392H11.3997V7.66382Z" fill="#789E9F"/>
<path id="Vector_31" d="M20.4675 10.4641H19.4674V11.2642H20.4675V10.4641Z" fill="#789E9F"/>
<path id="Vector_32" d="M18.3339 10.4641H13.9334V11.2642H18.3339V10.4641Z" fill="#789E9F"/>
<path id="Vector_33" d="M12.8666 9.46411H9.46616V10.2642H12.8666V9.46411Z" fill="#789E9F"/>
</g>
</g>
<defs>
<clipPath id="clip0_76_12160">
<rect width="30" height="30" fill="white"/>
</clipPath>
</defs>
</svg>
